<?xml version="1.0" standalone="no"?>
<!DOCTYPE svg PUBLIC "-//W3C//DTD SVG 1.1//EN" "http://www.w3.org/Graphics/SVG/1.1/DTD/svg11.dtd" >
<svg xmlns="http://www.w3.org/2000/svg" xmlns:xlink="http://www.w3.org/1999/xlink" version="1.1">
<metadata>
Created by FontForge 20170924 at Mon Sep 25 14:33:34 2023
 By www-data
Copyright \(c\) 2023 by Khurasan. All rights reserved.
</metadata>
<defs>
<font id="MondayRain" horiz-adv-x="0" >
  <font-face 
    font-family="Monday Rain"
    font-weight="400"
    font-stretch="normal"
    units-per-em="1000"
    panose-1="0 0 0 0 0 0 0 0 0 0"
    ascent="800"
    descent="-200"
    x-height="510"
    cap-height="755"
    bbox="-317.824 -311.045 965.657 910"
    underline-thickness="0"
    underline-position="0"
    stemh="80"
    unicode-range="U+000A-2212"
  />
<missing-glyph horiz-adv-x="527" 
 />
    <glyph glyph-name=".notdef" horiz-adv-x="527" 
 />
    <glyph glyph-name="NULL" 
 />
    <glyph glyph-name="NULL" 
 />
    <glyph glyph-name="CR" horiz-adv-x="250" 
 />
    <glyph glyph-name="space" unicode=" " horiz-adv-x="250" 
 />
    <glyph glyph-name="controlCR" unicode="&#xd;" 
 />
    <glyph glyph-name="exclam" unicode="!" horiz-adv-x="279" 
d="M141 251c-11 -17 -33 -25 -49 -14c-10 7 -19 19 -18 31c4 63 23 125 38 187c18 70 37 140 57 209c3 9 7 19 7 28c-1 10 5 20 10 29c16 25 53 17 61 -12c5 -17 -11 -77 -15 -94c-24 -110 -57 -218 -81 -328c-2 -6 -7 -31 -10 -36zM71 -3c-23 -8 -47 15 -44 39
c1 4 0 8 0 12c1 12 5 23 12 32c4 7 12 11 18 15c20 13 46 2 51 -20c2 -8 5 -16 3 -24c-4 -22 -19 -47 -40 -54z" />
    <glyph glyph-name="quotedbl" unicode="&#x22;" horiz-adv-x="298" 
d="M241 652c-19 -22 -56 -8 -58 22c-1 15 20 74 24 89c5 15 9 30 12 46c4 19 23 28 42 25h1c13 -4 26 -18 25 -32c0 -16 -4 -33 -8 -49c-6 -18 -25 -87 -38 -101zM86 638c-17 -33 -68 -17 -63 20c3 20 39 126 44 146c9 33 49 36 63 6c3 -9 4 -21 0 -29c-3 -5 -9 -33 -10 -39
c-5 -15 -27 -90 -34 -104z" />
    <glyph glyph-name="quotedbl" unicode="&#x201f;" horiz-adv-x="298" 
d="M241 652c-19 -22 -56 -8 -58 22c-1 15 20 74 24 89c5 15 9 30 12 46c4 19 23 28 42 25h1c13 -4 26 -18 25 -32c0 -16 -4 -33 -8 -49c-6 -18 -25 -87 -38 -101zM86 638c-17 -33 -68 -17 -63 20c3 20 39 126 44 146c9 33 49 36 63 6c3 -9 4 -21 0 -29c-3 -5 -9 -33 -10 -39
c-5 -15 -27 -90 -34 -104z" />
    <glyph glyph-name="quotedbl" unicode="&#x201e;" horiz-adv-x="298" 
d="M241 652c-19 -22 -56 -8 -58 22c-1 15 20 74 24 89c5 15 9 30 12 46c4 19 23 28 42 25h1c13 -4 26 -18 25 -32c0 -16 -4 -33 -8 -49c-6 -18 -25 -87 -38 -101zM86 638c-17 -33 -68 -17 -63 20c3 20 39 126 44 146c9 33 49 36 63 6c3 -9 4 -21 0 -29c-3 -5 -9 -33 -10 -39
c-5 -15 -27 -90 -34 -104z" />
    <glyph glyph-name="quotedbl" unicode="&#xbb;" horiz-adv-x="298" 
d="M241 652c-19 -22 -56 -8 -58 22c-1 15 20 74 24 89c5 15 9 30 12 46c4 19 23 28 42 25h1c13 -4 26 -18 25 -32c0 -16 -4 -33 -8 -49c-6 -18 -25 -87 -38 -101zM86 638c-17 -33 -68 -17 -63 20c3 20 39 126 44 146c9 33 49 36 63 6c3 -9 4 -21 0 -29c-3 -5 -9 -33 -10 -39
c-5 -15 -27 -90 -34 -104z" />
    <glyph glyph-name="quotedbl" unicode="&#xab;" horiz-adv-x="298" 
d="M241 652c-19 -22 -56 -8 -58 22c-1 15 20 74 24 89c5 15 9 30 12 46c4 19 23 28 42 25h1c13 -4 26 -18 25 -32c0 -16 -4 -33 -8 -49c-6 -18 -25 -87 -38 -101zM86 638c-17 -33 -68 -17 -63 20c3 20 39 126 44 146c9 33 49 36 63 6c3 -9 4 -21 0 -29c-3 -5 -9 -33 -10 -39
c-5 -15 -27 -90 -34 -104z" />
    <glyph glyph-name="numbersign" unicode="#" horiz-adv-x="760" 
d="M398 25c-9 -31 -50 -37 -65 -8c-3 7 -5 15 -3 23c5 22 43 149 50 172c-39 3 -77 4 -116 5c-12 -37 -23 -75 -33 -113c-2 -7 -7 -14 -12 -19c-26 -27 -69 -6 -69 31c-1 17 23 86 28 102c-37 -1 -75 -2 -112 -3c-6 0 -12 2 -17 3c-33 8 -35 51 -4 64c24 10 134 15 160 16
c16 45 31 90 47 135c-40 0 -80 -2 -120 -1c-39 1 -44 53 -8 66c5 1 10 3 14 4c20 4 121 6 141 6c15 43 31 85 44 128c3 9 9 19 18 24c22 14 49 -2 51 -29c1 -20 -26 -104 -32 -124c40 -1 80 -3 119 -7c7 19 44 113 48 133c8 40 64 36 66 -4c0 -3 -1 -16 -1 -18
c-3 -18 -36 -102 -42 -120c27 -4 146 -23 170 -36c28 -13 30 -51 3 -66c-16 -8 -37 -4 -54 -1c-49 11 -98 20 -147 27c-16 -42 -30 -84 -44 -127c7 -1 44 -6 51 -7c31 -6 91 -18 97 -49c5 -22 -8 -44 -31 -47c-11 -1 -66 11 -77 11c-8 0 -57 8 -66 9
c-18 -61 -37 -120 -54 -180zM292 301c38 -1 77 -3 115 -6c14 43 28 86 44 128c-39 4 -77 6 -115 8c-15 -44 -29 -87 -44 -130z" />
    <glyph glyph-name="dollar" unicode="$" horiz-adv-x="568" 
d="M217 -71c-20 -30 -63 -12 -60 24c2 25 4 50 6 74c-13 6 -26 14 -39 22c-29 20 -101 75 -106 110c-1 8 -2 17 3 24c10 17 31 26 48 15c12 -7 21 -20 31 -29c22 -21 48 -37 75 -50c13 87 34 174 60 258c-26 23 -53 47 -71 77c-13 19 -21 42 -22 65c-3 40 13 84 39 115
c23 28 54 51 87 66c30 14 64 18 97 17c5 11 22 53 21 65c-3 40 53 48 67 10c2 -6 0 -27 -1 -34c-4 -18 -12 -36 -19 -54c21 -7 43 -15 61 -27c20 -13 52 -50 50 -75c-3 -34 -48 -46 -68 -18c-6 10 -14 18 -23 24c-16 10 -34 15 -52 19c-31 -74 -61 -148 -87 -224
c29 -24 58 -48 82 -78c30 -37 50 -85 55 -133c3 -35 -2 -74 -20 -104c-16 -27 -43 -48 -71 -62c-40 -19 -88 -25 -132 -18c-1 -15 -3 -67 -11 -79zM224 499c7 -18 21 -34 35 -48c22 61 46 122 71 182c-31 -5 -64 -22 -84 -47c-12 -14 -22 -30 -25 -48c-2 -13 -1 -26 3 -39z
M239 98c52 -10 123 2 138 53c4 12 5 25 3 38c-3 24 -11 49 -23 70c-17 28 -41 51 -66 72c-23 -76 -41 -154 -52 -233z" />
    <glyph glyph-name="percent" unicode="%" horiz-adv-x="698" 
d="M182 419c-18 -9 -38 -16 -58 -14c-15 0 -30 5 -41 14c-22 16 -37 43 -42 69c-7 29 -6 60 -1 89c6 29 20 57 34 82c13 25 30 47 49 68c8 9 19 18 31 22c16 6 45 1 57 -12c13 1 26 -1 39 -5c25 -8 45 -33 52 -59c7 -27 6 -57 0 -85c-8 -36 -26 -70 -48 -100
c-19 -27 -43 -52 -72 -69zM140 0c-26 -21 -62 4 -53 36c2 6 8 11 11 17c126 231 270 453 438 656c12 14 25 29 43 35c27 9 54 -15 48 -43c-3 -13 -15 -24 -24 -34c-61 -66 -113 -139 -165 -212c-95 -133 -183 -271 -268 -412c-4 -7 -24 -38 -30 -43zM122 472
c12 -6 32 6 41 14c31 27 57 63 68 103c5 19 9 39 4 58c-1 5 -4 16 -9 18c-16 6 -40 -10 -52 -22c-14 -15 -26 -31 -39 -47c-5 -7 -15 -11 -23 -12c-7 -18 -11 -37 -10 -56c0 -16 6 -49 20 -56zM477 -37c-18 -2 -37 0 -53 9c-19 12 -31 35 -36 57c-4 20 -2 41 0 61
c7 60 23 122 55 173c19 31 52 63 83 43c20 8 45 11 66 4c20 -7 39 -22 50 -40c24 -38 25 -90 14 -133c-4 -13 -8 -26 -13 -39c-16 -41 -47 -78 -84 -103c-25 -16 -53 -28 -82 -32zM459 32c28 -5 78 30 97 52c18 22 29 50 34 79c2 17 3 35 -2 52c-4 13 -14 28 -28 25
c-9 -2 -18 -8 -25 -13c-17 -12 -32 -28 -43 -46c-7 -11 -12 -25 -23 -30c-8 -29 -14 -59 -15 -89c0 -6 1 -25 5 -30z" />
    <glyph glyph-name="ampersand" unicode="&#x26;" horiz-adv-x="680" 
d="M231 -22c-41 -3 -85 7 -118 31c-27 20 -49 49 -62 80c-19 48 -20 104 -7 154c14 54 49 103 89 141c-12 56 -10 115 4 171c16 63 62 127 121 155c25 12 55 17 84 15c28 -3 57 -17 75 -39c18 -21 28 -50 29 -78c0 -20 -5 -40 -12 -58c-16 -38 -48 -68 -81 -92
c-42 -31 -87 -57 -129 -89c6 -23 16 -45 26 -66c32 -63 75 -123 132 -165c35 42 59 96 67 151c5 31 -3 63 2 94c3 14 10 28 21 38s26 16 40 20c31 9 63 11 95 15c6 0 13 2 19 2c34 0 46 -45 16 -62c-13 -7 -78 -13 -94 -15c-10 -2 -20 -4 -30 -9c1 -24 2 -47 1 -71
c-6 -71 -36 -142 -79 -199c32 -15 69 -24 105 -20c26 3 48 -17 42 -43c-2 -11 -10 -20 -20 -25c-18 -8 -39 -6 -59 -6c-43 1 -87 15 -125 34c-13 -10 -27 -20 -41 -29c-33 -21 -73 -33 -111 -35zM235 588c-28 -40 -32 -96 -26 -144c38 26 78 49 114 77c16 13 31 28 41 47
c14 25 15 62 -9 78c-13 9 -33 8 -48 3c-30 -10 -54 -36 -72 -61zM171 60c19 -10 41 -13 63 -12c31 3 61 17 88 34c-52 39 -96 90 -130 145c-16 25 -27 51 -37 79c-29 -35 -48 -83 -47 -128c0 -30 9 -61 26 -86c9 -13 22 -25 37 -32z" />
    <glyph glyph-name="quotesingle" unicode="'" horiz-adv-x="157" 
d="M86 623c-16 -25 -55 -17 -62 12c-3 12 2 24 6 36c6 15 41 108 47 123c4 10 15 17 25 20c24 5 46 -15 41 -39c-5 -26 -43 -129 -57 -152z" />
    <glyph glyph-name="quotesingle" unicode="&#x203a;" horiz-adv-x="157" 
d="M86 623c-16 -25 -55 -17 -62 12c-3 12 2 24 6 36c6 15 41 108 47 123c4 10 15 17 25 20c24 5 46 -15 41 -39c-5 -26 -43 -129 -57 -152z" />
    <glyph glyph-name="quotesingle" unicode="&#x2039;" horiz-adv-x="157" 
d="M86 623c-16 -25 -55 -17 -62 12c-3 12 2 24 6 36c6 15 41 108 47 123c4 10 15 17 25 20c24 5 46 -15 41 -39c-5 -26 -43 -129 -57 -152z" />
    <glyph glyph-name="quotesingle" unicode="&#x201b;" horiz-adv-x="157" 
d="M86 623c-16 -25 -55 -17 -62 12c-3 12 2 24 6 36c6 15 41 108 47 123c4 10 15 17 25 20c24 5 46 -15 41 -39c-5 -26 -43 -129 -57 -152z" />
    <glyph glyph-name="quotesingle" unicode="&#x201a;" horiz-adv-x="157" 
d="M86 623c-16 -25 -55 -17 -62 12c-3 12 2 24 6 36c6 15 41 108 47 123c4 10 15 17 25 20c24 5 46 -15 41 -39c-5 -26 -43 -129 -57 -152z" />
    <glyph glyph-name="parenleft" unicode="(" horiz-adv-x="338" 
d="M250 -108c3 -26 -19 -47 -45 -42c-10 1 -19 8 -28 14c-5 4 -25 25 -29 30c-48 57 -86 126 -98 199c-21 127 3 264 50 384c44 113 111 218 189 310c27 31 80 90 119 78c27 -9 29 -47 4 -60c-11 -6 -44 -42 -52 -51c-82 -94 -149 -205 -189 -323c-22 -64 -37 -132 -41 -199
c-2 -47 0 -95 12 -140c12 -44 32 -86 58 -123c14 -20 30 -40 44 -60c4 -5 6 -11 6 -17z" />
    <glyph glyph-name="parenright" unicode=")" horiz-adv-x="288" 
d="M-23 -134c-10 -8 -23 -16 -35 -15c-23 3 -39 23 -34 45c3 14 15 25 25 36c40 45 80 90 110 142c28 46 46 97 63 148c24 70 32 145 35 219c4 93 0 189 -29 278c-11 35 -31 67 -53 97c-12 5 -22 18 -22 30c-2 33 39 47 65 27c39 -31 71 -74 91 -121c37 -85 47 -182 48 -275
c1 -119 -23 -242 -75 -348c-33 -65 -73 -127 -118 -184c-10 -12 -60 -69 -71 -79z" />
    <glyph glyph-name="asterisk" unicode="*" horiz-adv-x="381" 
d="M124 503c-27 -31 -75 10 -49 43c17 22 34 44 49 68c-23 5 -48 11 -69 22c-2 0 -3 0 -4 1c-30 8 -32 46 -5 61c14 8 33 -1 48 -8c7 -4 42 -12 51 -13c0 9 -1 57 -2 66c-3 18 11 34 29 37s37 -14 36 -32c0 -9 4 -59 4 -68c27 5 54 11 78 24c13 6 28 14 41 11
c25 -7 34 -40 15 -56c-33 -28 -78 -38 -120 -44c10 -12 19 -25 28 -37c10 -12 24 -23 27 -38c7 -28 -25 -49 -49 -34c-12 7 -47 54 -56 65c-16 -23 -33 -46 -52 -68z" />
    <glyph glyph-name="plus" unicode="+" horiz-adv-x="437" 
d="M235 118c3 -52 -67 -61 -75 -10c-4 27 19 139 24 165c-15 0 -106 -7 -121 -8c-40 -2 -58 50 -20 65c17 7 36 9 54 12c14 3 88 7 102 7c3 14 17 89 18 103c-11 40 36 66 62 35c7 -8 8 -19 9 -29c0 -36 -7 -73 -14 -108c18 0 95 2 112 -4c45 -15 35 -78 -12 -80
c-8 0 -15 3 -23 4c-30 4 -61 4 -91 4c-5 -23 -26 -132 -25 -156z" />
    <glyph glyph-name="hyphen" unicode="-" horiz-adv-x="462" 
d="M442 308c10 -30 -22 -53 -53 -50c-45 4 -275 17 -320 15c-1 -1 -2 -2 -4 -2c-32 -15 -59 23 -39 52c9 13 29 17 45 19c26 3 166 3 192 2c44 -1 89 -4 134 -5c4 0 21 -6 25 -8c9 -4 16 -14 20 -23z" />
    <glyph glyph-name="period" unicode="." horiz-adv-x="125" 
d="M89 26c-7 -10 -22 -16 -35 -15c-20 1 -38 24 -33 44c2 12 5 25 13 35c11 14 36 20 52 12c13 -7 21 -27 19 -43c-2 -12 -9 -22 -16 -33z" />
    <glyph glyph-name="slash" unicode="/" horiz-adv-x="446" 
d="M2 -140c-30 -33 -76 -2 -56 39c65 134 123 271 187 406c22 46 161 323 183 369c10 21 68 137 79 157c4 7 12 12 18 16c11 6 26 9 37 5c26 -10 37 -41 25 -67c-4 -10 -33 -63 -38 -73c-33 -65 -67 -130 -101 -195c-7 -13 -52 -96 -59 -109c-77 -149 -145 -301 -220 -450
c-8 -15 -43 -85 -55 -98z" />
    <glyph glyph-name="zero" unicode="0" horiz-adv-x="534" 
d="M405 161c-55 -95 -172 -182 -272 -136c-38 17 -67 58 -79 98c-17 51 -17 108 -9 161c13 88 49 174 93 251c1 2 3 12 4 13c5 11 12 21 20 31c7 7 40 56 47 64c10 13 22 26 38 33c11 4 25 4 36 -2l1 1c66 18 140 -10 176 -69c22 -35 33 -79 34 -121
c3 -112 -33 -227 -89 -324zM163 99c14 -10 36 -8 53 -2c39 12 73 40 99 72c21 25 38 53 52 83c15 33 28 67 37 102c17 73 25 195 -39 231c-14 8 -30 12 -46 10c-18 -2 -34 -13 -48 -24c-19 -15 -35 -32 -52 -48c-2 -2 -12 -11 -14 -14c-38 -68 -69 -144 -80 -221
c-6 -44 -7 -90 4 -133c6 -21 16 -43 34 -56z" />
    <glyph glyph-name="one" unicode="1" horiz-adv-x="428" 
d="M44 -18c-38 -2 -52 42 -21 64c6 4 14 5 21 5c30 3 61 6 92 8c35 99 63 201 93 302c23 78 51 155 78 232c-21 -11 -135 -78 -156 -87c-4 -2 -18 -3 -22 -3c-37 2 -45 53 -10 65c14 4 78 48 91 54c38 19 72 44 111 60c13 5 28 9 42 5c16 -4 30 -23 32 -40
c3 -24 -27 -108 -36 -131c-42 -120 -76 -244 -110 -367c-8 -29 -16 -57 -25 -84c28 2 57 3 86 4c27 0 46 -25 39 -51c-4 -13 -19 -23 -32 -25c-6 -1 -13 0 -19 0c-32 -1 -222 -10 -254 -11z" />
    <glyph glyph-name="two" unicode="2" horiz-adv-x="557" 
d="M85 -29c-9 -3 -19 -2 -28 3c-2 1 -4 2 -6 1c-20 -1 -35 16 -35 35c0 11 6 22 14 29c77 76 152 154 230 229c33 32 65 66 93 104c24 31 46 65 58 102c8 24 12 53 0 75c-10 19 -33 33 -54 38c-19 4 -40 3 -58 -3c-34 -9 -66 -29 -87 -57c-19 -26 -29 -58 -32 -90
c-1 -8 -3 -17 2 -23c20 -27 -8 -59 -41 -54c-17 3 -29 21 -36 36c-7 18 -5 39 -3 58c6 41 19 83 42 118c21 32 52 59 86 78c119 68 280 3 273 -135c-1 -26 -7 -53 -17 -77c-27 -65 -76 -119 -124 -170c-63 -68 -131 -131 -197 -196c93 24 194 31 288 13c22 -4 48 -10 62 -27
s8 -42 -9 -56c-7 -6 -17 -8 -26 -8c-13 -1 -77 9 -90 11c-80 8 -163 0 -241 -20c-21 -6 -41 -12 -63 -13c0 0 0 -1 -1 -1z" />
    <glyph glyph-name="three" unicode="3" horiz-adv-x="535" 
d="M295 -9c-43 -14 -93 -11 -136 4c-42 14 -86 35 -116 68c-10 12 -21 26 -22 42c-2 29 29 51 54 37c36 -21 73 -44 113 -57c20 -6 41 -5 61 -4c14 2 28 3 41 7c14 5 27 12 40 20c30 20 59 53 65 89c11 59 -2 129 -61 139c-31 5 -62 -5 -93 -11c-5 -1 -31 -11 -35 -12
c-7 -1 -15 2 -22 2c-33 -1 -46 43 -17 62c1 1 9 7 11 7c4 3 10 4 15 5c43 13 83 33 122 56c42 25 106 82 96 131c-2 10 -8 20 -16 27c-30 27 -109 33 -146 19c-23 -8 -46 -19 -66 -33c-10 -7 -20 -16 -32 -18c-37 -7 -53 42 -20 62c3 2 22 19 26 21c29 21 64 37 99 44
c93 18 207 -10 228 -103c6 -25 3 -54 -6 -79c-17 -44 -52 -82 -89 -111c33 -15 63 -42 78 -75c37 -78 23 -181 -33 -248c-35 -42 -86 -73 -139 -91z" />
    <glyph glyph-name="four" unicode="4" horiz-adv-x="521" 
d="M335 -9c-22 -18 -56 -1 -55 27c1 33 6 66 10 99c5 46 8 93 14 139c-69 -9 -137 -26 -206 -38c-16 -3 -34 -7 -51 -4c-24 5 -36 31 -27 54c6 14 49 56 60 66c88 86 168 180 244 277c9 11 47 57 51 71c6 23 33 31 53 17c19 -5 31 -26 26 -45c0 -1 0 -2 -1 -4
c-2 -41 -12 -82 -21 -123c-15 -64 -31 -128 -42 -193c19 -1 38 -2 56 -4c13 -1 26 -6 35 -16c12 -13 9 -39 -7 -49c-9 -5 -20 -8 -31 -7c-21 3 -43 4 -64 4c-4 -34 -24 -220 -31 -253c-2 -7 -7 -14 -13 -18zM362 546c-68 -87 -141 -171 -220 -249c57 12 114 24 172 31
c12 74 31 146 48 218z" />
    <glyph glyph-name="five" unicode="5" horiz-adv-x="508" 
d="M323 30c-41 -30 -99 -39 -148 -28c-36 7 -71 18 -105 34c-5 2 -27 12 -31 16c-8 8 -14 17 -16 27c-6 34 28 61 59 47c44 -20 90 -41 139 -42c19 0 40 5 55 16c49 36 74 107 60 165c-4 15 -11 29 -20 41c-11 14 -26 24 -42 31c-40 19 -91 6 -129 27c-17 9 -30 31 -31 51
c-2 44 43 181 64 219c2 4 11 17 14 20c13 12 32 17 49 20c20 2 119 -1 138 -1c14 -1 70 -2 83 -8c18 -8 26 -28 20 -46c-4 -11 -20 -23 -31 -23c-15 0 -30 -2 -45 -2c-14 -1 -100 1 -114 1c-16 0 -53 1 -61 -12c-7 -10 -23 -58 -27 -70c-4 -14 -23 -77 -22 -93
c29 -6 59 -4 88 -10c50 -10 92 -39 119 -83c59 -95 24 -231 -66 -297z" />
    <glyph glyph-name="six" unicode="6" horiz-adv-x="483" 
d="M231 -8c-26 -5 -55 -2 -80 9c-31 13 -58 39 -75 68c-28 47 -39 103 -37 157c6 122 55 247 132 341c27 34 60 67 99 87c37 19 81 28 122 21c11 -2 22 -8 32 -16c17 -14 27 -38 13 -55c-13 -16 -34 -22 -50 -10c-1 2 -5 6 -7 6c-26 -1 -53 -7 -76 -20
c-26 -14 -47 -36 -66 -58c-23 -26 -42 -56 -59 -87c37 19 81 24 121 18c37 -6 73 -27 96 -56c17 -22 28 -49 33 -77c5 -23 3 -47 1 -71c-12 -101 -98 -241 -199 -257zM155 91c13 -16 35 -28 56 -26c68 6 128 105 143 171c7 32 9 70 -7 99c-13 22 -35 40 -59 46
c-19 5 -39 5 -58 0c-37 -11 -68 -40 -95 -67c-12 -53 -18 -109 -6 -162c5 -22 13 -43 26 -61z" />
    <glyph glyph-name="seven" unicode="7" horiz-adv-x="422" 
d="M126 -18c-15 -20 -47 -17 -57 7c-4 10 -2 24 3 34c15 36 30 72 44 108c39 101 78 203 128 298c9 18 68 126 77 144c-35 0 -213 -18 -248 -12c-10 2 -21 3 -29 7c-42 24 -18 80 28 68c5 -1 24 2 29 3c44 5 89 11 133 14c38 4 127 15 152 -13c13 -15 22 -38 16 -57
c-3 -10 -7 -20 -12 -30c-6 -14 -52 -90 -59 -103c-32 -57 -62 -116 -88 -176c-26 -62 -50 -125 -74 -188c-6 -16 -32 -90 -43 -104z" />
    <glyph glyph-name="eight" unicode="8" horiz-adv-x="530" 
d="M328 -2c-89 -52 -215 -31 -271 55c-25 38 -30 89 -24 134c5 39 26 76 52 105c28 31 60 58 94 83c-14 21 -26 44 -32 69c-9 39 -7 74 7 112c11 30 33 58 57 80c38 34 88 56 140 61c27 3 56 0 81 -11c92 -41 71 -166 -2 -234c-37 -33 -79 -61 -121 -87
c27 -26 53 -51 77 -79c23 -25 43 -54 53 -86c10 -31 7 -67 -6 -97c-21 -45 -62 -81 -105 -105zM229 479c4 -22 17 -42 30 -60c47 30 97 61 133 104c14 16 24 37 25 58c1 11 -1 24 -9 32c-10 8 -26 9 -38 8c-13 0 -26 -4 -38 -8c-32 -10 -62 -30 -82 -57
c-16 -21 -25 -51 -21 -77zM213 53c39 -4 81 13 111 37c17 14 44 45 39 66c-4 21 -18 39 -32 55c-10 11 -73 71 -84 81c-8 9 -16 17 -24 26c-19 -14 -37 -30 -54 -47c-19 -18 -36 -38 -46 -61c-13 -32 -14 -72 -1 -104c7 -14 19 -27 33 -36c17 -10 38 -15 58 -17z" />
    <glyph glyph-name="nine" unicode="9" horiz-adv-x="561" 
d="M266 -5c-41 -14 -89 -20 -132 -10c-19 5 -37 16 -54 28s-34 26 -49 41c-22 24 -5 63 28 63c10 -1 19 -6 27 -12c9 -8 49 -33 61 -37c9 -3 45 -3 55 -2c33 4 67 16 94 37c45 37 81 86 105 139c-98 -54 -228 -41 -272 62c-17 40 -14 88 -5 131c20 95 108 225 205 231
c55 3 110 -22 144 -66c17 -22 29 -47 37 -74c13 -47 13 -98 8 -146c-11 -90 -41 -181 -94 -254c-39 -56 -93 -108 -158 -131zM220 299c36 -24 90 -21 129 -4c32 13 61 35 88 57c9 42 12 86 5 128c-4 25 -13 50 -28 70c-19 25 -57 42 -89 35c-25 -6 -46 -26 -63 -45
c-38 -43 -67 -99 -73 -157c-2 -18 0 -38 7 -55c5 -11 14 -22 24 -29z" />
    <glyph glyph-name="colon" unicode=":" horiz-adv-x="207" 
d="M169 398c-9 -9 -24 -15 -37 -13c-25 2 -42 33 -34 57c4 10 8 19 15 26c11 10 29 15 43 10c33 -13 39 -56 13 -80zM77 6c-27 -12 -59 12 -53 41c2 10 11 43 18 51c12 13 26 18 43 14c21 -4 35 -32 27 -52s-15 -45 -35 -54z" />
    <glyph glyph-name="semicolon" unicode=";" horiz-adv-x="134" 
d="M113 419c-5 -27 -30 -48 -57 -43s-44 36 -32 60c6 12 13 25 25 31c33 18 72 -11 64 -48zM52 -47c-27 -12 -59 12 -53 41c2 10 36 96 43 104c12 13 26 18 43 14c21 -4 35 -32 27 -52s-40 -98 -60 -107z" />
    <glyph glyph-name="less" unicode="&#x3c;" horiz-adv-x="481" 
d="M383 131c19 -25 -10 -63 -39 -51c-12 6 -83 41 -95 47c-56 27 -114 49 -168 79c-16 10 -32 20 -42 35c-17 24 -16 57 3 80c21 26 54 41 85 55c30 14 212 88 242 103c14 7 27 15 43 18c13 3 29 -1 38 -11c5 -6 8 -15 9 -22c4 -22 -13 -39 -34 -40
c-87 -44 -179 -79 -266 -122c-16 -8 -32 -16 -47 -27c14 -10 88 -45 103 -52s107 -52 122 -60c17 -9 35 -17 46 -32z" />
    <glyph glyph-name="equal" unicode="=" horiz-adv-x="492" 
d="M441 341c-9 -4 -19 -2 -29 -2c-82 5 -165 10 -247 10c-20 0 -79 1 -94 14c-27 21 -7 62 27 59c10 0 20 2 30 2c101 -1 203 -2 304 -8c9 -1 17 -6 24 -12c20 -20 12 -53 -15 -63zM425 235c45 -30 13 -95 -37 -76c-6 2 -11 4 -18 5c-36 6 -73 8 -109 8c-61 2 -121 2 -181 0
c-3 0 -6 0 -9 -1c-41 -17 -66 38 -28 60c4 2 10 4 15 6c39 10 219 10 260 9c28 -1 56 -3 83 -5c9 -1 17 -2 24 -6z" />
    <glyph glyph-name="greater" unicode="&#x3e;" horiz-adv-x="445" 
d="M87 105c-23 -11 -50 -1 -59 22c-6 15 3 38 16 48c16 12 103 43 121 51c41 16 82 32 121 50c14 7 28 13 40 22c-53 43 -119 68 -178 104c-20 12 -38 26 -57 40c-29 23 -16 69 21 67c8 0 15 -5 20 -10c1 -1 4 -5 5 -6c71 -45 159 -63 226 -115c20 -15 39 -32 49 -54
c8 -17 8 -39 -1 -55c-14 -30 -49 -47 -79 -61c-28 -12 -197 -78 -224 -91c-3 -1 -19 -11 -21 -12z" />
    <glyph glyph-name="question" unicode="?" horiz-adv-x="428" 
d="M187 253c-12 -27 -46 -37 -66 -16c-30 33 10 101 33 139c12 20 25 40 39 58c29 37 62 71 89 110c15 22 28 47 30 74c2 35 -29 59 -64 62c-65 4 -127 -42 -132 -107c-2 -17 -3 -37 9 -49c17 -16 11 -44 -11 -54c-19 -10 -39 -5 -51 12c-12 19 -19 41 -23 63
c-3 19 0 40 4 59c8 43 35 85 70 111c43 33 100 52 153 46c37 -4 75 -22 100 -50c25 -26 36 -66 33 -102c-3 -31 -13 -61 -28 -88c-27 -47 -66 -87 -100 -129c-34 -43 -63 -90 -85 -139zM111 7c-24 -13 -54 7 -51 35c2 12 5 25 12 36c16 26 55 21 63 -8c3 -16 -3 -32 -9 -47
c-2 -6 -8 -12 -15 -16z" />
    <glyph glyph-name="at" unicode="@" horiz-adv-x="694" 
d="M458 19c-56 -31 -122 -51 -186 -47c-86 6 -165 59 -202 137c-30 62 -35 137 -26 205c13 103 54 205 117 287c35 46 80 89 132 115c60 31 133 43 199 30c51 -11 102 -46 128 -91c17 -30 23 -65 27 -99c9 -69 -1 -142 -26 -208c-18 -49 -45 -99 -86 -132
c-22 -19 -51 -32 -80 -36c-16 -2 -33 -2 -48 3c-19 7 -34 25 -41 44c-22 -26 -45 -55 -76 -69c-26 -11 -51 -8 -73 10c-22 17 -32 48 -32 75c1 36 12 71 25 103c13 34 30 67 54 95c18 21 40 40 65 53c26 13 59 21 85 10c24 -10 41 -36 50 -61c7 -18 8 -51 -7 -64
c-18 -15 -44 -7 -52 15c-2 6 -5 21 -11 23c-7 2 -24 -5 -30 -9c-20 -10 -37 -27 -50 -46c-21 -28 -35 -61 -44 -94c-4 -12 -7 -26 -6 -39c15 4 46 38 56 49c8 9 46 58 52 68c19 33 66 9 59 -27c-2 -12 -7 -54 -3 -65c18 -3 37 3 53 12c21 13 37 34 50 55
c39 67 55 147 43 224c-6 35 -25 75 -57 91c-43 20 -96 21 -141 7c-69 -22 -127 -77 -169 -136c-18 -26 -36 -52 -50 -80c-17 -36 -30 -74 -37 -113c-5 -33 -9 -66 -4 -99c4 -32 11 -64 29 -90c29 -45 80 -74 135 -77c30 -1 61 5 90 15c53 18 102 50 147 85c8 5 37 29 47 32
c13 3 28 -3 35 -16c9 -13 8 -36 -4 -47c-42 -37 -88 -72 -137 -98z" />
    <glyph glyph-name="A" unicode="A" horiz-adv-x="825" 
d="M94 -10c-20 -4 -41 -7 -60 0c-13 5 -27 14 -33 27c-5 11 -3 25 3 36c11 19 43 23 57 6c14 3 28 8 41 15c24 13 44 35 60 58c26 36 49 75 71 114c-5 -1 -33 -5 -38 -7c-8 -3 -16 -7 -24 -6c-26 3 -38 33 -23 54c18 26 107 43 137 50c28 50 57 101 87 150
c43 73 91 146 152 205c25 24 56 47 91 53c19 4 40 -2 56 -13s28 -28 35 -45c15 -38 19 -80 20 -121c1 -100 -14 -199 -24 -299c-5 -39 -10 -79 -8 -118c0 -25 2 -51 12 -74c18 17 32 37 47 57c24 32 72 3 56 -34c-8 -20 -56 -75 -74 -88c-13 -9 -30 -15 -46 -12
c-16 2 -32 12 -42 25c-22 26 -33 62 -37 96c-6 49 -3 98 2 147c-25 0 -168 3 -193 2c-28 -2 -56 -5 -85 -8c-42 -72 -81 -148 -138 -209c-27 -29 -64 -52 -102 -61zM389 354c77 9 157 12 234 -2c9 77 18 154 17 231c0 15 0 30 -2 45c-2 13 -5 26 -13 36
c-27 -7 -82 -72 -99 -95c-51 -68 -95 -141 -137 -215z" />
    <glyph glyph-name="A" unicode="&#xc5;" horiz-adv-x="825" 
d="M94 -10c-20 -4 -41 -7 -60 0c-13 5 -27 14 -33 27c-5 11 -3 25 3 36c11 19 43 23 57 6c14 3 28 8 41 15c24 13 44 35 60 58c26 36 49 75 71 114c-5 -1 -33 -5 -38 -7c-8 -3 -16 -7 -24 -6c-26 3 -38 33 -23 54c18 26 107 43 137 50c28 50 57 101 87 150
c43 73 91 146 152 205c25 24 56 47 91 53c19 4 40 -2 56 -13s28 -28 35 -45c15 -38 19 -80 20 -121c1 -100 -14 -199 -24 -299c-5 -39 -10 -79 -8 -118c0 -25 2 -51 12 -74c18 17 32 37 47 57c24 32 72 3 56 -34c-8 -20 -56 -75 -74 -88c-13 -9 -30 -15 -46 -12
c-16 2 -32 12 -42 25c-22 26 -33 62 -37 96c-6 49 -3 98 2 147c-25 0 -168 3 -193 2c-28 -2 -56 -5 -85 -8c-42 -72 -81 -148 -138 -209c-27 -29 -64 -52 -102 -61zM389 354c77 9 157 12 234 -2c9 77 18 154 17 231c0 15 0 30 -2 45c-2 13 -5 26 -13 36
c-27 -7 -82 -72 -99 -95c-51 -68 -95 -141 -137 -215z" />
    <glyph glyph-name="A" unicode="&#xc4;" horiz-adv-x="825" 
d="M94 -10c-20 -4 -41 -7 -60 0c-13 5 -27 14 -33 27c-5 11 -3 25 3 36c11 19 43 23 57 6c14 3 28 8 41 15c24 13 44 35 60 58c26 36 49 75 71 114c-5 -1 -33 -5 -38 -7c-8 -3 -16 -7 -24 -6c-26 3 -38 33 -23 54c18 26 107 43 137 50c28 50 57 101 87 150
c43 73 91 146 152 205c25 24 56 47 91 53c19 4 40 -2 56 -13s28 -28 35 -45c15 -38 19 -80 20 -121c1 -100 -14 -199 -24 -299c-5 -39 -10 -79 -8 -118c0 -25 2 -51 12 -74c18 17 32 37 47 57c24 32 72 3 56 -34c-8 -20 -56 -75 -74 -88c-13 -9 -30 -15 -46 -12
c-16 2 -32 12 -42 25c-22 26 -33 62 -37 96c-6 49 -3 98 2 147c-25 0 -168 3 -193 2c-28 -2 -56 -5 -85 -8c-42 -72 -81 -148 -138 -209c-27 -29 -64 -52 -102 -61zM389 354c77 9 157 12 234 -2c9 77 18 154 17 231c0 15 0 30 -2 45c-2 13 -5 26 -13 36
c-27 -7 -82 -72 -99 -95c-51 -68 -95 -141 -137 -215z" />
    <glyph glyph-name="A" unicode="&#xc3;" horiz-adv-x="825" 
d="M94 -10c-20 -4 -41 -7 -60 0c-13 5 -27 14 -33 27c-5 11 -3 25 3 36c11 19 43 23 57 6c14 3 28 8 41 15c24 13 44 35 60 58c26 36 49 75 71 114c-5 -1 -33 -5 -38 -7c-8 -3 -16 -7 -24 -6c-26 3 -38 33 -23 54c18 26 107 43 137 50c28 50 57 101 87 150
c43 73 91 146 152 205c25 24 56 47 91 53c19 4 40 -2 56 -13s28 -28 35 -45c15 -38 19 -80 20 -121c1 -100 -14 -199 -24 -299c-5 -39 -10 -79 -8 -118c0 -25 2 -51 12 -74c18 17 32 37 47 57c24 32 72 3 56 -34c-8 -20 -56 -75 -74 -88c-13 -9 -30 -15 -46 -12
c-16 2 -32 12 -42 25c-22 26 -33 62 -37 96c-6 49 -3 98 2 147c-25 0 -168 3 -193 2c-28 -2 -56 -5 -85 -8c-42 -72 -81 -148 -138 -209c-27 -29 -64 -52 -102 -61zM389 354c77 9 157 12 234 -2c9 77 18 154 17 231c0 15 0 30 -2 45c-2 13 -5 26 -13 36
c-27 -7 -82 -72 -99 -95c-51 -68 -95 -141 -137 -215z" />
    <glyph glyph-name="A" unicode="&#xc2;" horiz-adv-x="825" 
d="M94 -10c-20 -4 -41 -7 -60 0c-13 5 -27 14 -33 27c-5 11 -3 25 3 36c11 19 43 23 57 6c14 3 28 8 41 15c24 13 44 35 60 58c26 36 49 75 71 114c-5 -1 -33 -5 -38 -7c-8 -3 -16 -7 -24 -6c-26 3 -38 33 -23 54c18 26 107 43 137 50c28 50 57 101 87 150
c43 73 91 146 152 205c25 24 56 47 91 53c19 4 40 -2 56 -13s28 -28 35 -45c15 -38 19 -80 20 -121c1 -100 -14 -199 -24 -299c-5 -39 -10 -79 -8 -118c0 -25 2 -51 12 -74c18 17 32 37 47 57c24 32 72 3 56 -34c-8 -20 -56 -75 -74 -88c-13 -9 -30 -15 -46 -12
c-16 2 -32 12 -42 25c-22 26 -33 62 -37 96c-6 49 -3 98 2 147c-25 0 -168 3 -193 2c-28 -2 -56 -5 -85 -8c-42 -72 -81 -148 -138 -209c-27 -29 -64 -52 -102 -61zM389 354c77 9 157 12 234 -2c9 77 18 154 17 231c0 15 0 30 -2 45c-2 13 -5 26 -13 36
c-27 -7 -82 -72 -99 -95c-51 -68 -95 -141 -137 -215z" />
    <glyph glyph-name="A" unicode="&#xc1;" horiz-adv-x="825" 
d="M94 -10c-20 -4 -41 -7 -60 0c-13 5 -27 14 -33 27c-5 11 -3 25 3 36c11 19 43 23 57 6c14 3 28 8 41 15c24 13 44 35 60 58c26 36 49 75 71 114c-5 -1 -33 -5 -38 -7c-8 -3 -16 -7 -24 -6c-26 3 -38 33 -23 54c18 26 107 43 137 50c28 50 57 101 87 150
c43 73 91 146 152 205c25 24 56 47 91 53c19 4 40 -2 56 -13s28 -28 35 -45c15 -38 19 -80 20 -121c1 -100 -14 -199 -24 -299c-5 -39 -10 -79 -8 -118c0 -25 2 -51 12 -74c18 17 32 37 47 57c24 32 72 3 56 -34c-8 -20 -56 -75 -74 -88c-13 -9 -30 -15 -46 -12
c-16 2 -32 12 -42 25c-22 26 -33 62 -37 96c-6 49 -3 98 2 147c-25 0 -168 3 -193 2c-28 -2 -56 -5 -85 -8c-42 -72 -81 -148 -138 -209c-27 -29 -64 -52 -102 -61zM389 354c77 9 157 12 234 -2c9 77 18 154 17 231c0 15 0 30 -2 45c-2 13 -5 26 -13 36
c-27 -7 -82 -72 -99 -95c-51 -68 -95 -141 -137 -215z" />
    <glyph glyph-name="A" unicode="&#xc0;" horiz-adv-x="825" 
d="M94 -10c-20 -4 -41 -7 -60 0c-13 5 -27 14 -33 27c-5 11 -3 25 3 36c11 19 43 23 57 6c14 3 28 8 41 15c24 13 44 35 60 58c26 36 49 75 71 114c-5 -1 -33 -5 -38 -7c-8 -3 -16 -7 -24 -6c-26 3 -38 33 -23 54c18 26 107 43 137 50c28 50 57 101 87 150
c43 73 91 146 152 205c25 24 56 47 91 53c19 4 40 -2 56 -13s28 -28 35 -45c15 -38 19 -80 20 -121c1 -100 -14 -199 -24 -299c-5 -39 -10 -79 -8 -118c0 -25 2 -51 12 -74c18 17 32 37 47 57c24 32 72 3 56 -34c-8 -20 -56 -75 -74 -88c-13 -9 -30 -15 -46 -12
c-16 2 -32 12 -42 25c-22 26 -33 62 -37 96c-6 49 -3 98 2 147c-25 0 -168 3 -193 2c-28 -2 -56 -5 -85 -8c-42 -72 -81 -148 -138 -209c-27 -29 -64 -52 -102 -61zM389 354c77 9 157 12 234 -2c9 77 18 154 17 231c0 15 0 30 -2 45c-2 13 -5 26 -13 36
c-27 -7 -82 -72 -99 -95c-51 -68 -95 -141 -137 -215z" />
    <glyph glyph-name="B" unicode="B" horiz-adv-x="715" 
d="M171 17c-29 -19 -67 -4 -72 30c-2 14 5 28 12 41c3 5 24 30 28 34c28 35 52 74 68 116c20 49 34 101 46 154c16 69 31 138 43 207c2 15 4 31 5 46c-58 -30 -112 -74 -150 -127c-15 -21 -25 -48 -28 -75c0 -2 3 -4 5 -6c19 -21 5 -54 -23 -63c-29 -9 -65 11 -79 38
c-9 17 -11 38 -10 57c2 32 14 64 29 92c22 44 61 79 102 106c60 41 129 70 200 84c47 10 95 13 142 6c45 -7 93 -25 122 -60c13 -18 21 -41 21 -63c-1 -28 -14 -55 -31 -77c-26 -34 -62 -61 -98 -84c45 -8 91 -25 127 -53c18 -14 35 -32 45 -53c33 -68 19 -157 -33 -214
c-61 -65 -145 -116 -233 -132c-52 -9 -107 -10 -160 -2c-19 3 -39 8 -57 17c-6 -7 -13 -14 -21 -19zM371 670c8 -32 -13 -162 -18 -195c19 5 37 14 54 23c45 25 146 88 151 138c2 19 -23 32 -41 38c-21 6 -42 7 -63 7c-28 0 -56 -4 -83 -11zM234 93c58 -17 125 -15 184 3
c52 16 102 48 138 90c19 22 35 48 41 77c5 23 3 51 -11 70c-16 23 -41 39 -67 48c-30 12 -62 19 -93 19c-14 -1 -75 -10 -88 -6c-20 -104 -48 -211 -104 -301z" />
    <glyph glyph-name="C" unicode="C" horiz-adv-x="599" 
d="M271 6c-84 -9 -171 38 -209 113c-3 5 -14 28 -16 33c-19 53 -22 111 -17 167c10 92 41 185 95 259c33 46 73 88 118 121c31 23 65 44 102 53c49 13 103 11 152 -3c28 -9 57 -23 78 -44c6 -6 12 -14 17 -22c4 -7 5 -17 3 -26c-9 -28 -47 -31 -63 -6c-8 12 -43 25 -57 28
c-33 8 -68 12 -101 4c-35 -9 -67 -31 -93 -57c-20 -19 -40 -40 -57 -62c-9 -13 -17 -26 -25 -40c-40 -64 -67 -138 -75 -213c-3 -31 -4 -62 1 -93c5 -36 19 -73 44 -100c25 -29 72 -41 110 -34c42 7 81 31 115 58c7 6 50 42 57 48c32 28 75 -21 45 -50
c-39 -36 -79 -73 -125 -100c-30 -17 -64 -31 -99 -34z" />
    <glyph glyph-name="C" unicode="&#xc7;" horiz-adv-x="599" 
d="M271 6c-84 -9 -171 38 -209 113c-3 5 -14 28 -16 33c-19 53 -22 111 -17 167c10 92 41 185 95 259c33 46 73 88 118 121c31 23 65 44 102 53c49 13 103 11 152 -3c28 -9 57 -23 78 -44c6 -6 12 -14 17 -22c4 -7 5 -17 3 -26c-9 -28 -47 -31 -63 -6c-8 12 -43 25 -57 28
c-33 8 -68 12 -101 4c-35 -9 -67 -31 -93 -57c-20 -19 -40 -40 -57 -62c-9 -13 -17 -26 -25 -40c-40 -64 -67 -138 -75 -213c-3 -31 -4 -62 1 -93c5 -36 19 -73 44 -100c25 -29 72 -41 110 -34c42 7 81 31 115 58c7 6 50 42 57 48c32 28 75 -21 45 -50
c-39 -36 -79 -73 -125 -100c-30 -17 -64 -31 -99 -34z" />
    <glyph glyph-name="D" unicode="D" horiz-adv-x="744" 
d="M201 -30c-17 -30 -69 -15 -67 20c-1 0 -8 2 -10 3c-32 13 -38 57 -7 73c15 7 33 3 49 2c10 23 20 45 29 68c32 80 54 164 76 248c5 22 33 133 35 156c0 7 2 16 6 22c18 23 56 17 64 -11c3 -15 -5 -68 -8 -82c-29 -136 -64 -271 -118 -398c59 5 118 20 169 48
c67 37 125 95 161 162c24 46 44 96 50 148c7 55 -10 115 -44 159c-14 19 -32 35 -53 47c-46 26 -104 32 -158 31c-45 -2 -91 -6 -133 -21c-23 -9 -46 -20 -66 -35c-39 -32 -92 -98 -72 -145c0 -1 5 -3 6 -4c7 -3 13 -11 15 -19c8 -24 -16 -44 -41 -44c-47 -1 -72 51 -69 98
c2 26 11 53 25 76c27 48 68 90 115 119c33 19 70 33 107 41c63 15 129 23 192 16c54 -7 110 -24 152 -58c72 -58 116 -151 114 -244c0 -43 -10 -87 -25 -128c-28 -78 -77 -153 -140 -208c-53 -47 -117 -84 -185 -103c-52 -16 -107 -19 -161 -21c-2 -5 -5 -10 -8 -16z" />
    <glyph glyph-name="E" unicode="E" horiz-adv-x="648" 
d="M67 -22c-15 -6 -37 -5 -50 5c-19 15 -14 45 7 57c1 1 5 2 6 3c3 2 16 18 18 21c69 88 113 195 144 302c-18 11 -21 36 -6 51c6 7 14 10 23 12c19 77 39 154 54 232c-34 3 -69 4 -103 3c-9 0 -31 0 -36 -7c-1 -2 0 -5 0 -7c2 -32 -38 -46 -59 -22c-18 20 -13 55 4 75
c12 13 28 23 44 28c29 8 60 8 91 8c117 -1 235 -18 350 -1c20 3 39 9 59 11c33 5 51 -39 25 -59c-27 -21 -62 -30 -96 -34c-68 -10 -137 -6 -205 0c-3 -31 -38 -189 -44 -219c59 4 119 9 177 1c52 -8 42 -76 -10 -72c-61 5 -123 3 -184 0c-16 -63 -37 -126 -64 -185
c-15 -34 -31 -67 -50 -97c49 -3 98 -8 148 -11c16 -1 111 -5 127 -6c10 -1 28 -12 33 -22c3 -7 6 -16 4 -24c-5 -16 -14 -26 -30 -31c-4 -2 -23 -3 -27 -3c-45 1 -267 13 -311 23c-11 -13 -24 -25 -39 -32z" />
    <glyph glyph-name="E" unicode="&#xcb;" horiz-adv-x="648" 
d="M67 -22c-15 -6 -37 -5 -50 5c-19 15 -14 45 7 57c1 1 5 2 6 3c3 2 16 18 18 21c69 88 113 195 144 302c-18 11 -21 36 -6 51c6 7 14 10 23 12c19 77 39 154 54 232c-34 3 -69 4 -103 3c-9 0 -31 0 -36 -7c-1 -2 0 -5 0 -7c2 -32 -38 -46 -59 -22c-18 20 -13 55 4 75
c12 13 28 23 44 28c29 8 60 8 91 8c117 -1 235 -18 350 -1c20 3 39 9 59 11c33 5 51 -39 25 -59c-27 -21 -62 -30 -96 -34c-68 -10 -137 -6 -205 0c-3 -31 -38 -189 -44 -219c59 4 119 9 177 1c52 -8 42 -76 -10 -72c-61 5 -123 3 -184 0c-16 -63 -37 -126 -64 -185
c-15 -34 -31 -67 -50 -97c49 -3 98 -8 148 -11c16 -1 111 -5 127 -6c10 -1 28 -12 33 -22c3 -7 6 -16 4 -24c-5 -16 -14 -26 -30 -31c-4 -2 -23 -3 -27 -3c-45 1 -267 13 -311 23c-11 -13 -24 -25 -39 -32z" />
    <glyph glyph-name="E" unicode="&#xca;" horiz-adv-x="648" 
d="M67 -22c-15 -6 -37 -5 -50 5c-19 15 -14 45 7 57c1 1 5 2 6 3c3 2 16 18 18 21c69 88 113 195 144 302c-18 11 -21 36 -6 51c6 7 14 10 23 12c19 77 39 154 54 232c-34 3 -69 4 -103 3c-9 0 -31 0 -36 -7c-1 -2 0 -5 0 -7c2 -32 -38 -46 -59 -22c-18 20 -13 55 4 75
c12 13 28 23 44 28c29 8 60 8 91 8c117 -1 235 -18 350 -1c20 3 39 9 59 11c33 5 51 -39 25 -59c-27 -21 -62 -30 -96 -34c-68 -10 -137 -6 -205 0c-3 -31 -38 -189 -44 -219c59 4 119 9 177 1c52 -8 42 -76 -10 -72c-61 5 -123 3 -184 0c-16 -63 -37 -126 -64 -185
c-15 -34 -31 -67 -50 -97c49 -3 98 -8 148 -11c16 -1 111 -5 127 -6c10 -1 28 -12 33 -22c3 -7 6 -16 4 -24c-5 -16 -14 -26 -30 -31c-4 -2 -23 -3 -27 -3c-45 1 -267 13 -311 23c-11 -13 -24 -25 -39 -32z" />
    <glyph glyph-name="E" unicode="&#xc9;" horiz-adv-x="648" 
d="M67 -22c-15 -6 -37 -5 -50 5c-19 15 -14 45 7 57c1 1 5 2 6 3c3 2 16 18 18 21c69 88 113 195 144 302c-18 11 -21 36 -6 51c6 7 14 10 23 12c19 77 39 154 54 232c-34 3 -69 4 -103 3c-9 0 -31 0 -36 -7c-1 -2 0 -5 0 -7c2 -32 -38 -46 -59 -22c-18 20 -13 55 4 75
c12 13 28 23 44 28c29 8 60 8 91 8c117 -1 235 -18 350 -1c20 3 39 9 59 11c33 5 51 -39 25 -59c-27 -21 -62 -30 -96 -34c-68 -10 -137 -6 -205 0c-3 -31 -38 -189 -44 -219c59 4 119 9 177 1c52 -8 42 -76 -10 -72c-61 5 -123 3 -184 0c-16 -63 -37 -126 -64 -185
c-15 -34 -31 -67 -50 -97c49 -3 98 -8 148 -11c16 -1 111 -5 127 -6c10 -1 28 -12 33 -22c3 -7 6 -16 4 -24c-5 -16 -14 -26 -30 -31c-4 -2 -23 -3 -27 -3c-45 1 -267 13 -311 23c-11 -13 -24 -25 -39 -32z" />
    <glyph glyph-name="E" unicode="&#xc8;" horiz-adv-x="648" 
d="M67 -22c-15 -6 -37 -5 -50 5c-19 15 -14 45 7 57c1 1 5 2 6 3c3 2 16 18 18 21c69 88 113 195 144 302c-18 11 -21 36 -6 51c6 7 14 10 23 12c19 77 39 154 54 232c-34 3 -69 4 -103 3c-9 0 -31 0 -36 -7c-1 -2 0 -5 0 -7c2 -32 -38 -46 -59 -22c-18 20 -13 55 4 75
c12 13 28 23 44 28c29 8 60 8 91 8c117 -1 235 -18 350 -1c20 3 39 9 59 11c33 5 51 -39 25 -59c-27 -21 -62 -30 -96 -34c-68 -10 -137 -6 -205 0c-3 -31 -38 -189 -44 -219c59 4 119 9 177 1c52 -8 42 -76 -10 -72c-61 5 -123 3 -184 0c-16 -63 -37 -126 -64 -185
c-15 -34 -31 -67 -50 -97c49 -3 98 -8 148 -11c16 -1 111 -5 127 -6c10 -1 28 -12 33 -22c3 -7 6 -16 4 -24c-5 -16 -14 -26 -30 -31c-4 -2 -23 -3 -27 -3c-45 1 -267 13 -311 23c-11 -13 -24 -25 -39 -32z" />
    <glyph glyph-name="F" unicode="F" horiz-adv-x="664" 
d="M119 -22c-27 -5 -49 1 -68 18c-19 16 -51 55 -47 79c4 20 24 31 43 26c22 -6 34 -29 50 -44c2 -2 6 -4 8 -3c17 3 33 14 44 27c14 16 25 34 34 53c34 72 51 151 67 229c-12 0 -25 -3 -37 -2c-22 2 -35 26 -27 46c3 8 10 14 17 19c9 7 50 9 62 9c5 25 33 166 40 190
c3 12 6 24 14 33c-29 -1 -59 -3 -88 -8c-27 -5 -55 -16 -75 -35c-1 0 -2 -4 -3 -5c-8 -19 -30 -25 -47 -15c-16 9 -20 31 -13 47c2 6 18 26 23 31c16 15 33 29 54 37c49 20 102 29 155 32c94 6 188 4 281 0c17 -1 34 -7 46 -18c19 -19 14 -50 -10 -62c-20 -9 -44 -7 -66 -6
c-62 4 -125 4 -188 4c7 -9 10 -22 10 -34c0 -6 -2 -13 -4 -19c-15 -56 -29 -113 -43 -169c44 1 88 0 132 -5c21 -2 67 -7 76 -27s2 -44 -19 -51c-13 -5 -28 1 -42 2c-21 2 -144 5 -166 5c-18 -69 -35 -138 -59 -205c-15 -41 -32 -84 -59 -119c-23 -30 -58 -54 -95 -60z" />
    <glyph glyph-name="G" unicode="G" horiz-adv-x="701" 
d="M385 -143c-19 -10 -42 -16 -64 -14c-29 3 -38 40 -16 58c9 8 22 7 33 10c42 10 91 91 106 131c18 49 30 99 42 150c-46 -61 -101 -119 -166 -159c-41 -26 -90 -47 -139 -45c-26 1 -52 9 -74 23c-25 17 -45 44 -57 71c-18 40 -21 85 -22 128c-3 126 40 256 111 361
c38 56 86 108 145 141c27 15 55 28 85 33c44 7 91 5 134 -7c36 -10 75 -25 98 -54c19 -24 -1 -57 -31 -54c-12 2 -20 13 -29 19c-16 11 -34 17 -53 21c-21 5 -42 10 -64 8c-39 -3 -78 -19 -108 -42c-54 -42 -94 -101 -125 -161c-24 -46 -39 -97 -49 -148
c-12 -62 -16 -126 -3 -187c4 -19 9 -38 19 -55c5 -7 13 -12 20 -16c20 -9 46 -3 67 5c62 23 115 71 159 122c39 45 72 95 100 148c-34 -4 -68 -10 -101 -18c-38 -11 -62 33 -31 58c5 3 24 9 29 11c46 12 93 19 141 24c41 4 82 7 123 5c39 -1 42 -62 3 -67
c-27 -4 -55 -4 -82 -6c-15 -79 -31 -159 -51 -237c-16 -62 -35 -127 -72 -180c-21 -30 -46 -59 -78 -77z" />
    <glyph glyph-name="H" unicode="H" horiz-adv-x="841" 
d="M622 -34c-22 -22 -58 -4 -59 27c-1 12 1 24 2 36c6 40 54 258 64 297c-43 4 -86 3 -129 2c-45 -1 -90 -2 -135 -5c-12 -51 -25 -101 -43 -149c-10 -28 -22 -57 -38 -82c-14 -24 -32 -45 -51 -65c-21 -21 -48 -41 -78 -45c-23 -4 -48 3 -67 15c-14 9 -31 18 -38 33
c-11 27 20 55 45 42c13 -6 25 -16 39 -18c16 -4 43 19 54 32c3 4 17 23 19 28c10 19 20 38 28 59c19 45 31 92 43 140c-6 -1 -13 -2 -20 -3c-8 -1 -17 2 -24 7c-20 13 -17 43 4 56c8 6 48 11 58 13c22 92 51 182 76 273c-34 -4 -69 -10 -102 -18c-43 -10 -85 -31 -117 -62
c-27 -26 -55 -57 -62 -95c-1 -5 -3 -20 -1 -25c15 -30 -18 -58 -47 -42c-10 5 -16 18 -19 28c-4 14 -4 29 -4 43c3 38 23 74 44 106c20 29 45 55 72 76c44 34 99 54 154 65c16 3 92 13 108 13c13 -1 26 -3 37 -10c7 -4 12 -12 16 -19c2 -5 8 -23 8 -28
c0 -11 -16 -57 -19 -67c-22 -76 -42 -152 -59 -229c88 7 177 8 265 0c28 108 72 210 107 316c4 11 9 23 16 33c15 21 46 14 57 -9c8 -21 -14 -80 -21 -100c-16 -49 -33 -98 -48 -147c-11 -36 -20 -71 -30 -107c11 -3 22 -6 32 -10c27 -11 25 -51 -2 -62c-15 -6 -32 1 -48 5
c-11 -45 -71 -282 -76 -328c-1 -8 -5 -15 -11 -20z" />
    <glyph glyph-name="I" unicode="I" horiz-adv-x="425" 
d="M81 5c-9 -15 -26 -21 -41 -15c-11 5 -18 15 -24 24c-11 17 -2 37 14 48c19 12 99 21 122 22c2 56 82 294 99 347c23 74 46 148 67 222c-41 -2 -82 10 -122 6c-23 -3 -47 -12 -65 -27c-8 -7 -18 -17 -16 -27c4 -22 -15 -39 -37 -41c-19 -2 -36 15 -40 33c-5 31 5 69 27 92
c40 42 88 64 144 66c24 1 129 -12 152 -17c1 -1 3 0 5 1c25 7 47 -20 40 -45c-35 -140 -82 -277 -121 -416c-7 -25 -47 -167 -57 -192c39 -2 78 -9 114 -24c27 -13 28 -51 1 -63c-6 -2 -14 -4 -21 -2c-28 7 -57 15 -86 15c-52 2 -104 -2 -155 -7z" />
    <glyph glyph-name="I" unicode="&#xcf;" horiz-adv-x="425" 
d="M81 5c-9 -15 -26 -21 -41 -15c-11 5 -18 15 -24 24c-11 17 -2 37 14 48c19 12 99 21 122 22c2 56 82 294 99 347c23 74 46 148 67 222c-41 -2 -82 10 -122 6c-23 -3 -47 -12 -65 -27c-8 -7 -18 -17 -16 -27c4 -22 -15 -39 -37 -41c-19 -2 -36 15 -40 33c-5 31 5 69 27 92
c40 42 88 64 144 66c24 1 129 -12 152 -17c1 -1 3 0 5 1c25 7 47 -20 40 -45c-35 -140 -82 -277 -121 -416c-7 -25 -47 -167 -57 -192c39 -2 78 -9 114 -24c27 -13 28 -51 1 -63c-6 -2 -14 -4 -21 -2c-28 7 -57 15 -86 15c-52 2 -104 -2 -155 -7z" />
    <glyph glyph-name="I" unicode="&#xce;" horiz-adv-x="425" 
d="M81 5c-9 -15 -26 -21 -41 -15c-11 5 -18 15 -24 24c-11 17 -2 37 14 48c19 12 99 21 122 22c2 56 82 294 99 347c23 74 46 148 67 222c-41 -2 -82 10 -122 6c-23 -3 -47 -12 -65 -27c-8 -7 -18 -17 -16 -27c4 -22 -15 -39 -37 -41c-19 -2 -36 15 -40 33c-5 31 5 69 27 92
c40 42 88 64 144 66c24 1 129 -12 152 -17c1 -1 3 0 5 1c25 7 47 -20 40 -45c-35 -140 -82 -277 -121 -416c-7 -25 -47 -167 -57 -192c39 -2 78 -9 114 -24c27 -13 28 -51 1 -63c-6 -2 -14 -4 -21 -2c-28 7 -57 15 -86 15c-52 2 -104 -2 -155 -7z" />
    <glyph glyph-name="I" unicode="&#xcd;" horiz-adv-x="425" 
d="M81 5c-9 -15 -26 -21 -41 -15c-11 5 -18 15 -24 24c-11 17 -2 37 14 48c19 12 99 21 122 22c2 56 82 294 99 347c23 74 46 148 67 222c-41 -2 -82 10 -122 6c-23 -3 -47 -12 -65 -27c-8 -7 -18 -17 -16 -27c4 -22 -15 -39 -37 -41c-19 -2 -36 15 -40 33c-5 31 5 69 27 92
c40 42 88 64 144 66c24 1 129 -12 152 -17c1 -1 3 0 5 1c25 7 47 -20 40 -45c-35 -140 -82 -277 -121 -416c-7 -25 -47 -167 -57 -192c39 -2 78 -9 114 -24c27 -13 28 -51 1 -63c-6 -2 -14 -4 -21 -2c-28 7 -57 15 -86 15c-52 2 -104 -2 -155 -7z" />
    <glyph glyph-name="I" unicode="&#xcc;" horiz-adv-x="425" 
d="M81 5c-9 -15 -26 -21 -41 -15c-11 5 -18 15 -24 24c-11 17 -2 37 14 48c19 12 99 21 122 22c2 56 82 294 99 347c23 74 46 148 67 222c-41 -2 -82 10 -122 6c-23 -3 -47 -12 -65 -27c-8 -7 -18 -17 -16 -27c4 -22 -15 -39 -37 -41c-19 -2 -36 15 -40 33c-5 31 5 69 27 92
c40 42 88 64 144 66c24 1 129 -12 152 -17c1 -1 3 0 5 1c25 7 47 -20 40 -45c-35 -140 -82 -277 -121 -416c-7 -25 -47 -167 -57 -192c39 -2 78 -9 114 -24c27 -13 28 -51 1 -63c-6 -2 -14 -4 -21 -2c-28 7 -57 15 -86 15c-52 2 -104 -2 -155 -7z" />
    <glyph glyph-name="J" unicode="J" horiz-adv-x="450" 
d="M59 -216c-30 -10 -64 -8 -96 -3c-30 5 -60 14 -84 32c-8 6 -22 28 -24 38c-4 33 34 54 59 32s90 -31 120 -20c23 8 42 27 56 47c20 29 34 62 48 94c76 172 101 363 156 543c5 17 37 120 41 137c-44 -2 -89 5 -133 -1c-27 -4 -53 -16 -75 -30c-12 -8 -23 -17 -32 -27
c7 -31 -21 -60 -51 -50c-29 9 -44 42 -37 71c3 15 13 29 24 40c36 38 86 65 137 74c58 11 119 3 179 2c20 0 40 3 59 5c40 5 54 -53 17 -68c-2 -1 -3 -1 -4 -3c-8 -29 -54 -205 -61 -234c-29 -118 -50 -239 -88 -355c-12 -37 -25 -73 -39 -108c-22 -56 -48 -112 -86 -158
c-22 -26 -52 -48 -86 -58z" />
    <glyph glyph-name="K" unicode="K" horiz-adv-x="747" 
d="M128 -6c-28 -28 -75 -1 -63 37c10 31 18 62 28 93c13 40 28 79 43 118c39 104 78 208 103 317c7 30 13 62 14 93c0 12 1 29 -11 30c-22 3 -44 -3 -65 -10c-21 -6 -42 -15 -60 -27c-8 -5 -33 -25 -37 -33c-2 -4 -1 -9 -2 -13c-6 -30 -44 -36 -61 -11c-7 11 -5 26 -2 39
c3 17 14 32 25 45c27 30 63 52 101 66c38 15 82 27 122 17c19 -5 37 -17 48 -33c14 -19 19 -45 19 -70c1 -70 -19 -139 -38 -206c38 21 74 47 102 80c48 56 89 117 144 166c29 25 62 48 100 57c22 6 48 4 68 -5c10 -5 21 -11 27 -21c7 -11 10 -26 6 -39
c-8 -23 -36 -33 -54 -15c-2 1 -4 1 -5 1c-5 0 -27 -1 -32 -2c-12 -4 -23 -9 -33 -16c-26 -18 -51 -38 -72 -62c-32 -35 -60 -74 -92 -110c-36 -41 -81 -74 -129 -101c48 -56 81 -123 111 -189c11 -26 23 -51 38 -74c26 -40 74 -76 116 -53c18 11 32 28 47 44
c26 27 70 -4 53 -38c-2 -4 -17 -22 -21 -26c-23 -26 -54 -48 -88 -54c-23 -3 -48 -2 -71 6c-37 12 -70 40 -95 70c-58 71 -75 170 -129 245c-7 10 -15 20 -23 30c-14 -41 -104 -280 -119 -321c-3 -9 -7 -18 -13 -25z" />
    <glyph glyph-name="L" unicode="L" horiz-adv-x="452" 
d="M67 -9c-6 -4 -27 -9 -34 -9c-25 3 -38 31 -24 52c4 7 7 16 13 21c10 8 17 20 22 31c48 109 61 231 83 348c14 76 34 154 72 221c16 28 37 53 61 74c22 19 51 32 80 31c47 -1 85 -36 92 -82c3 -19 4 -39 -1 -57c-1 -3 -4 -18 -5 -21c-4 -37 -55 -40 -65 -4c-2 8 0 17 3 24
c5 18 6 38 0 55c-6 15 -25 17 -39 10c-13 -6 -23 -17 -32 -27c-38 -42 -57 -99 -72 -153c-24 -87 -33 -177 -52 -266c-10 -52 -24 -105 -43 -155c63 9 127 8 189 1c13 -2 81 -10 93 -13c31 -8 34 -48 7 -63c-10 -6 -46 -5 -58 -3c-52 5 -104 13 -156 13
c-38 0 -78 -4 -115 -13c-8 -2 -12 -11 -19 -15z" />
    <glyph glyph-name="M" unicode="M" horiz-adv-x="937" 
d="M494 25c0 -24 -23 -40 -45 -32c-9 4 -17 13 -22 22c-19 33 -28 72 -36 110c-19 94 -30 191 -34 287c-2 31 -7 217 -9 247c-9 -64 -25 -127 -39 -191c-33 -141 -59 -284 -104 -422c-3 -12 -7 -25 -16 -33c-20 -16 -50 -21 -67 -1c-11 13 -19 33 -13 49
c24 69 48 138 66 208c15 57 95 368 104 426c-44 1 -90 1 -130 -16c-15 -6 -58 -25 -65 -40c-3 -6 -4 -24 -3 -30c5 -31 -31 -49 -57 -30c-7 5 -11 14 -13 23c-1 4 -3 25 -3 29c-1 19 3 40 14 56c14 20 36 35 57 49c34 21 75 35 115 40c51 6 104 7 155 -1c15 -3 33 -4 44 -15
c9 -10 23 -20 24 -34c16 -199 10 -400 47 -595c26 63 59 124 93 185c39 70 81 139 127 205c16 24 119 160 137 183c4 6 22 32 28 36c25 19 61 2 61 -29c1 -21 -2 -41 -7 -61c-35 -128 -82 -252 -108 -382c-7 -36 -27 -140 -10 -171c3 -6 10 -10 16 -12c11 -4 25 -5 36 -1
c9 3 15 11 23 16c24 14 52 -8 48 -35c-2 -16 -29 -36 -44 -42c-60 -24 -132 0 -153 61c-11 31 -17 64 -17 96c0 57 11 113 25 167c14 58 32 114 52 170c-58 -82 -112 -166 -160 -254c-43 -77 -85 -156 -117 -238z" />
    <glyph glyph-name="N" unicode="N" horiz-adv-x="854" 
d="M580 -38c-5 -2 -11 -2 -17 -1c-34 6 -73 74 -88 106c-57 122 -90 256 -120 388c-15 67 -28 135 -45 202c0 -1 -1 -1 -2 -1c-4 -34 -31 -228 -38 -261c-16 -85 -38 -169 -71 -249c-13 -29 -56 -129 -81 -148c-8 -6 -15 -13 -24 -16c-28 -9 -54 15 -50 45c4 33 26 62 41 91
c20 37 39 73 54 112c19 52 34 106 47 160c3 15 24 105 27 121c9 53 17 107 26 160c-23 3 -47 4 -70 3c-19 0 -39 -2 -57 -10c-19 -10 -30 -32 -26 -51c9 -36 -36 -55 -59 -26c-4 4 -5 10 -7 15c-15 46 17 104 59 126c31 17 69 21 105 22c47 2 94 -2 139 -12
c7 -2 13 -7 20 -7c9 -1 19 -8 24 -17c2 -5 3 -11 5 -16c2 -4 5 -9 7 -13c33 -123 56 -249 92 -371c24 -81 51 -161 88 -236c15 84 38 166 60 249c30 111 63 222 113 326c11 22 43 88 65 98c25 11 52 -5 54 -31c2 -17 -10 -33 -18 -47c-50 -85 -84 -179 -113 -273
c-32 -101 -58 -203 -83 -305c-3 -10 -14 -63 -16 -73v-24c-1 -13 -13 -26 -26 -29c-5 -1 -9 -6 -15 -7z" />
    <glyph glyph-name="N" unicode="&#xd1;" horiz-adv-x="854" 
d="M580 -38c-5 -2 -11 -2 -17 -1c-34 6 -73 74 -88 106c-57 122 -90 256 -120 388c-15 67 -28 135 -45 202c0 -1 -1 -1 -2 -1c-4 -34 -31 -228 -38 -261c-16 -85 -38 -169 -71 -249c-13 -29 -56 -129 -81 -148c-8 -6 -15 -13 -24 -16c-28 -9 -54 15 -50 45c4 33 26 62 41 91
c20 37 39 73 54 112c19 52 34 106 47 160c3 15 24 105 27 121c9 53 17 107 26 160c-23 3 -47 4 -70 3c-19 0 -39 -2 -57 -10c-19 -10 -30 -32 -26 -51c9 -36 -36 -55 -59 -26c-4 4 -5 10 -7 15c-15 46 17 104 59 126c31 17 69 21 105 22c47 2 94 -2 139 -12
c7 -2 13 -7 20 -7c9 -1 19 -8 24 -17c2 -5 3 -11 5 -16c2 -4 5 -9 7 -13c33 -123 56 -249 92 -371c24 -81 51 -161 88 -236c15 84 38 166 60 249c30 111 63 222 113 326c11 22 43 88 65 98c25 11 52 -5 54 -31c2 -17 -10 -33 -18 -47c-50 -85 -84 -179 -113 -273
c-32 -101 -58 -203 -83 -305c-3 -10 -14 -63 -16 -73v-24c-1 -13 -13 -26 -26 -29c-5 -1 -9 -6 -15 -7z" />
    <glyph glyph-name="O" unicode="O" horiz-adv-x="612" 
d="M262 21c-35 -14 -77 -21 -114 -11c-25 7 -49 24 -66 43c-30 33 -45 78 -51 121c-6 37 -5 74 0 111c6 61 22 120 44 177c30 74 70 144 116 209c12 17 23 35 37 50c9 9 43 48 55 54c7 4 16 4 25 6c2 1 15 7 18 8c37 15 82 18 121 7c16 -4 31 -11 45 -21
c26 -18 46 -43 63 -70c20 -33 30 -69 31 -108c1 -24 2 -48 0 -72c-15 -154 -91 -309 -200 -419c-36 -36 -78 -67 -124 -85zM144 116c36 -58 112 -10 164 35c49 43 87 98 117 156c31 58 54 123 61 188c5 42 4 86 -12 124c-9 21 -21 43 -41 55c-6 3 -11 7 -18 9s-16 3 -24 2
c-28 -2 -57 -9 -79 -26c-9 -6 -45 -39 -51 -47c-15 -17 -27 -36 -43 -51c-2 -2 -8 -7 -9 -9c-33 -62 -58 -127 -74 -195c-12 -49 -20 -101 -16 -152c2 -31 8 -63 25 -89z" />
    <glyph glyph-name="O" unicode="&#xd8;" horiz-adv-x="612" 
d="M262 21c-35 -14 -77 -21 -114 -11c-25 7 -49 24 -66 43c-30 33 -45 78 -51 121c-6 37 -5 74 0 111c6 61 22 120 44 177c30 74 70 144 116 209c12 17 23 35 37 50c9 9 43 48 55 54c7 4 16 4 25 6c2 1 15 7 18 8c37 15 82 18 121 7c16 -4 31 -11 45 -21
c26 -18 46 -43 63 -70c20 -33 30 -69 31 -108c1 -24 2 -48 0 -72c-15 -154 -91 -309 -200 -419c-36 -36 -78 -67 -124 -85zM144 116c36 -58 112 -10 164 35c49 43 87 98 117 156c31 58 54 123 61 188c5 42 4 86 -12 124c-9 21 -21 43 -41 55c-6 3 -11 7 -18 9s-16 3 -24 2
c-28 -2 -57 -9 -79 -26c-9 -6 -45 -39 -51 -47c-15 -17 -27 -36 -43 -51c-2 -2 -8 -7 -9 -9c-33 -62 -58 -127 -74 -195c-12 -49 -20 -101 -16 -152c2 -31 8 -63 25 -89z" />
    <glyph glyph-name="O" unicode="&#xd6;" horiz-adv-x="612" 
d="M262 21c-35 -14 -77 -21 -114 -11c-25 7 -49 24 -66 43c-30 33 -45 78 -51 121c-6 37 -5 74 0 111c6 61 22 120 44 177c30 74 70 144 116 209c12 17 23 35 37 50c9 9 43 48 55 54c7 4 16 4 25 6c2 1 15 7 18 8c37 15 82 18 121 7c16 -4 31 -11 45 -21
c26 -18 46 -43 63 -70c20 -33 30 -69 31 -108c1 -24 2 -48 0 -72c-15 -154 -91 -309 -200 -419c-36 -36 -78 -67 -124 -85zM144 116c36 -58 112 -10 164 35c49 43 87 98 117 156c31 58 54 123 61 188c5 42 4 86 -12 124c-9 21 -21 43 -41 55c-6 3 -11 7 -18 9s-16 3 -24 2
c-28 -2 -57 -9 -79 -26c-9 -6 -45 -39 -51 -47c-15 -17 -27 -36 -43 -51c-2 -2 -8 -7 -9 -9c-33 -62 -58 -127 -74 -195c-12 -49 -20 -101 -16 -152c2 -31 8 -63 25 -89z" />
    <glyph glyph-name="O" unicode="&#xd5;" horiz-adv-x="612" 
d="M262 21c-35 -14 -77 -21 -114 -11c-25 7 -49 24 -66 43c-30 33 -45 78 -51 121c-6 37 -5 74 0 111c6 61 22 120 44 177c30 74 70 144 116 209c12 17 23 35 37 50c9 9 43 48 55 54c7 4 16 4 25 6c2 1 15 7 18 8c37 15 82 18 121 7c16 -4 31 -11 45 -21
c26 -18 46 -43 63 -70c20 -33 30 -69 31 -108c1 -24 2 -48 0 -72c-15 -154 -91 -309 -200 -419c-36 -36 -78 -67 -124 -85zM144 116c36 -58 112 -10 164 35c49 43 87 98 117 156c31 58 54 123 61 188c5 42 4 86 -12 124c-9 21 -21 43 -41 55c-6 3 -11 7 -18 9s-16 3 -24 2
c-28 -2 -57 -9 -79 -26c-9 -6 -45 -39 -51 -47c-15 -17 -27 -36 -43 -51c-2 -2 -8 -7 -9 -9c-33 -62 -58 -127 -74 -195c-12 -49 -20 -101 -16 -152c2 -31 8 -63 25 -89z" />
    <glyph glyph-name="O" unicode="&#xd4;" horiz-adv-x="612" 
d="M262 21c-35 -14 -77 -21 -114 -11c-25 7 -49 24 -66 43c-30 33 -45 78 -51 121c-6 37 -5 74 0 111c6 61 22 120 44 177c30 74 70 144 116 209c12 17 23 35 37 50c9 9 43 48 55 54c7 4 16 4 25 6c2 1 15 7 18 8c37 15 82 18 121 7c16 -4 31 -11 45 -21
c26 -18 46 -43 63 -70c20 -33 30 -69 31 -108c1 -24 2 -48 0 -72c-15 -154 -91 -309 -200 -419c-36 -36 -78 -67 -124 -85zM144 116c36 -58 112 -10 164 35c49 43 87 98 117 156c31 58 54 123 61 188c5 42 4 86 -12 124c-9 21 -21 43 -41 55c-6 3 -11 7 -18 9s-16 3 -24 2
c-28 -2 -57 -9 -79 -26c-9 -6 -45 -39 -51 -47c-15 -17 -27 -36 -43 -51c-2 -2 -8 -7 -9 -9c-33 -62 -58 -127 -74 -195c-12 -49 -20 -101 -16 -152c2 -31 8 -63 25 -89z" />
    <glyph glyph-name="O" unicode="&#xd3;" horiz-adv-x="612" 
d="M262 21c-35 -14 -77 -21 -114 -11c-25 7 -49 24 -66 43c-30 33 -45 78 -51 121c-6 37 -5 74 0 111c6 61 22 120 44 177c30 74 70 144 116 209c12 17 23 35 37 50c9 9 43 48 55 54c7 4 16 4 25 6c2 1 15 7 18 8c37 15 82 18 121 7c16 -4 31 -11 45 -21
c26 -18 46 -43 63 -70c20 -33 30 -69 31 -108c1 -24 2 -48 0 -72c-15 -154 -91 -309 -200 -419c-36 -36 -78 -67 -124 -85zM144 116c36 -58 112 -10 164 35c49 43 87 98 117 156c31 58 54 123 61 188c5 42 4 86 -12 124c-9 21 -21 43 -41 55c-6 3 -11 7 -18 9s-16 3 -24 2
c-28 -2 -57 -9 -79 -26c-9 -6 -45 -39 -51 -47c-15 -17 -27 -36 -43 -51c-2 -2 -8 -7 -9 -9c-33 -62 -58 -127 -74 -195c-12 -49 -20 -101 -16 -152c2 -31 8 -63 25 -89z" />
    <glyph glyph-name="O" unicode="&#xd2;" horiz-adv-x="612" 
d="M262 21c-35 -14 -77 -21 -114 -11c-25 7 -49 24 -66 43c-30 33 -45 78 -51 121c-6 37 -5 74 0 111c6 61 22 120 44 177c30 74 70 144 116 209c12 17 23 35 37 50c9 9 43 48 55 54c7 4 16 4 25 6c2 1 15 7 18 8c37 15 82 18 121 7c16 -4 31 -11 45 -21
c26 -18 46 -43 63 -70c20 -33 30 -69 31 -108c1 -24 2 -48 0 -72c-15 -154 -91 -309 -200 -419c-36 -36 -78 -67 -124 -85zM144 116c36 -58 112 -10 164 35c49 43 87 98 117 156c31 58 54 123 61 188c5 42 4 86 -12 124c-9 21 -21 43 -41 55c-6 3 -11 7 -18 9s-16 3 -24 2
c-28 -2 -57 -9 -79 -26c-9 -6 -45 -39 -51 -47c-15 -17 -27 -36 -43 -51c-2 -2 -8 -7 -9 -9c-33 -62 -58 -127 -74 -195c-12 -49 -20 -101 -16 -152c2 -31 8 -63 25 -89z" />
    <glyph glyph-name="P" unicode="P" horiz-adv-x="614" 
d="M120 6c-16 -26 -45 -52 -71 -36c-18 11 -27 32 -17 50c5 9 12 16 17 25c4 5 17 34 19 40c42 121 73 246 102 371c7 29 42 188 45 217c1 1 0 8 0 9c-19 -2 -101 -17 -118 -26c-18 -8 -33 -28 -53 -27c-23 1 -37 25 -28 46c5 13 38 39 51 46c14 7 29 11 44 15
c67 18 137 30 206 26c40 -2 81 -9 119 -23c122 -45 195 -175 149 -297c-15 -40 -42 -75 -74 -104c-53 -48 -124 -82 -196 -89c-36 -4 -74 -1 -109 8c-18 -70 -37 -141 -66 -209c-5 -14 -11 -29 -20 -42zM225 332c57 -3 116 8 167 31s102 63 121 115c12 30 11 65 -2 96
c-13 33 -41 60 -72 78c-46 27 -103 34 -156 35c3 -53 -6 -107 -16 -159c-12 -66 -26 -131 -42 -196z" />
    <glyph glyph-name="Q" unicode="Q" horiz-adv-x="612" 
d="M541 -129c-34 -20 -77 -35 -117 -30c-39 5 -76 26 -104 54c-34 32 -55 77 -72 121c-33 -11 -70 -15 -102 -5c-25 8 -47 23 -64 42c-30 33 -45 78 -51 121c-6 37 -5 74 0 111c6 61 22 120 44 177c30 74 70 144 116 209c12 17 23 35 37 50c9 9 43 48 55 54c7 4 16 4 25 6
c2 1 15 7 18 8c37 15 82 18 121 7c16 -4 31 -11 45 -21c26 -18 46 -43 63 -70c20 -33 30 -69 31 -108c1 -24 2 -48 0 -72c-10 -104 -50 -208 -105 -297c-43 -70 -99 -135 -167 -180c17 -37 37 -76 68 -102c21 -18 51 -32 78 -25c17 4 33 10 50 15c29 9 55 -19 45 -48
c-3 -7 -7 -13 -14 -17zM144 116c36 -58 112 -10 164 35c49 43 87 98 117 156c31 58 54 123 61 188c5 42 4 86 -12 124c-9 21 -21 43 -41 55c-6 3 -11 7 -18 9s-16 3 -24 2c-28 -2 -57 -9 -79 -26c-9 -6 -45 -39 -51 -47c-15 -17 -27 -36 -43 -51c-2 -2 -8 -7 -9 -9
c-33 -62 -58 -127 -74 -195c-12 -49 -20 -101 -16 -152c2 -31 8 -63 25 -89z" />
    <glyph glyph-name="R" unicode="R" horiz-adv-x="746" 
d="M177 -6c-24 -15 -54 5 -53 33c1 17 16 29 23 45c16 38 62 239 71 280c15 74 30 148 50 221c5 18 10 37 14 55c-48 -21 -95 -48 -131 -86c-29 -30 -55 -69 -58 -111c0 -2 3 -1 6 -2c36 -7 35 -56 0 -66c-7 -2 -15 1 -22 1c-12 0 -25 -1 -34 6c-42 30 -32 106 -10 153
c16 32 35 64 60 89c79 79 194 125 305 140c65 9 132 3 195 -15c36 -10 71 -29 96 -56c16 -17 26 -39 29 -61c6 -33 -1 -69 -16 -98c-11 -20 -23 -38 -38 -55c-20 -23 -46 -43 -71 -60c-41 -30 -87 -52 -134 -71c-22 -9 -45 -16 -69 -20c35 -59 68 -120 117 -167
c27 -27 59 -53 96 -63c13 -4 28 -2 42 0c7 1 37 10 44 9c27 -4 42 -31 29 -55c-13 -23 -69 -35 -96 -37c-34 -2 -70 10 -99 29c-43 27 -82 62 -113 102c-26 35 -48 72 -67 110c-7 14 -38 73 -41 88c0 1 0 5 0 3c-22 -107 -41 -219 -97 -312c-7 -12 -17 -22 -28 -29zM329 470
c-8 -36 -15 -71 -22 -107c5 10 15 19 26 21c37 5 73 19 106 35c46 22 93 46 134 76c21 16 41 34 53 57c8 14 13 31 12 47c-1 38 -58 56 -96 63c-58 10 -119 9 -176 -6c-7 -63 -24 -124 -37 -186z" />
    <glyph glyph-name="S" unicode="S" horiz-adv-x="583" 
d="M222 -5c-40 -6 -83 -6 -121 7c-41 14 -76 50 -93 90c-3 6 -7 13 -6 21c1 6 2 12 3 17c8 28 45 29 61 5c3 -5 18 -28 22 -32c2 -2 15 -13 17 -15c41 -29 136 -17 180 7c39 21 71 60 88 101c9 23 13 51 3 75c-7 19 -22 36 -37 50c-46 45 -100 82 -134 135
c-20 31 -32 67 -35 102c-8 92 75 170 165 184c27 3 55 0 82 -5c45 -10 89 -30 130 -51c11 -6 20 -14 27 -24c16 -19 4 -49 -21 -54c-10 -3 -22 2 -32 6c-38 18 -75 38 -116 48c-23 6 -49 8 -72 2c-31 -8 -61 -30 -76 -59c-11 -21 -11 -49 -3 -71c10 -26 27 -50 46 -70
c43 -47 100 -83 132 -138c27 -46 30 -100 10 -151c-24 -60 -68 -119 -125 -149c-29 -15 -62 -25 -95 -31z" />
    <glyph glyph-name="T" unicode="T" horiz-adv-x="612" 
d="M177 -26c-23 -19 -63 -5 -69 24c-2 12 -1 26 7 36c27 32 55 65 69 104c18 48 28 99 37 150c13 69 24 139 35 208c4 26 32 172 39 198c-45 0 -91 -1 -135 -13c-26 -8 -53 -20 -71 -40c27 -29 -10 -67 -48 -60c-45 7 -44 66 -17 102c19 26 47 45 77 58c23 11 49 19 75 23
c74 14 151 12 227 10c44 -2 88 -4 132 1c16 2 32 9 49 7c28 -4 43 -36 26 -59c-11 -14 -30 -21 -47 -24c-18 -4 -37 -6 -56 -6c-48 -1 -96 0 -144 1c-1 -21 -4 -41 -8 -61c-19 -106 -33 -212 -47 -318c-8 -54 -16 -109 -29 -161c-18 -67 -50 -136 -102 -180z" />
    <glyph glyph-name="U" unicode="U" horiz-adv-x="688" 
d="M239 18c-26 -16 -58 -28 -89 -27c-19 1 -39 8 -55 19c-30 21 -53 58 -59 95c-11 67 -3 136 9 202c14 78 35 155 56 231c8 27 47 156 49 183c1 13 5 27 14 36c24 24 60 -2 59 -35c0 -19 -5 -38 -10 -56c-34 -129 -73 -258 -89 -390c-6 -45 -12 -91 -7 -136
c2 -20 8 -63 25 -72c22 -12 65 14 85 29c51 37 92 88 127 141c29 44 54 90 78 138c42 85 79 173 117 260c7 19 40 99 53 114c8 9 23 12 34 9c2 -1 5 -2 7 -2c27 1 42 -28 33 -53c-40 -125 -87 -247 -122 -373c-18 -63 -34 -126 -37 -191c-1 -17 0 -35 8 -50
c9 -15 26 -23 40 -32c30 -18 19 -60 -15 -63c-15 -1 -51 22 -63 31c-14 12 -26 27 -35 43c-12 25 -16 54 -16 82c-1 35 4 71 11 105c-51 -92 -118 -183 -208 -238z" />
    <glyph glyph-name="U" unicode="&#xdc;" horiz-adv-x="688" 
d="M239 18c-26 -16 -58 -28 -89 -27c-19 1 -39 8 -55 19c-30 21 -53 58 -59 95c-11 67 -3 136 9 202c14 78 35 155 56 231c8 27 47 156 49 183c1 13 5 27 14 36c24 24 60 -2 59 -35c0 -19 -5 -38 -10 -56c-34 -129 -73 -258 -89 -390c-6 -45 -12 -91 -7 -136
c2 -20 8 -63 25 -72c22 -12 65 14 85 29c51 37 92 88 127 141c29 44 54 90 78 138c42 85 79 173 117 260c7 19 40 99 53 114c8 9 23 12 34 9c2 -1 5 -2 7 -2c27 1 42 -28 33 -53c-40 -125 -87 -247 -122 -373c-18 -63 -34 -126 -37 -191c-1 -17 0 -35 8 -50
c9 -15 26 -23 40 -32c30 -18 19 -60 -15 -63c-15 -1 -51 22 -63 31c-14 12 -26 27 -35 43c-12 25 -16 54 -16 82c-1 35 4 71 11 105c-51 -92 -118 -183 -208 -238z" />
    <glyph glyph-name="U" unicode="&#xdb;" horiz-adv-x="688" 
d="M239 18c-26 -16 -58 -28 -89 -27c-19 1 -39 8 -55 19c-30 21 -53 58 -59 95c-11 67 -3 136 9 202c14 78 35 155 56 231c8 27 47 156 49 183c1 13 5 27 14 36c24 24 60 -2 59 -35c0 -19 -5 -38 -10 -56c-34 -129 -73 -258 -89 -390c-6 -45 -12 -91 -7 -136
c2 -20 8 -63 25 -72c22 -12 65 14 85 29c51 37 92 88 127 141c29 44 54 90 78 138c42 85 79 173 117 260c7 19 40 99 53 114c8 9 23 12 34 9c2 -1 5 -2 7 -2c27 1 42 -28 33 -53c-40 -125 -87 -247 -122 -373c-18 -63 -34 -126 -37 -191c-1 -17 0 -35 8 -50
c9 -15 26 -23 40 -32c30 -18 19 -60 -15 -63c-15 -1 -51 22 -63 31c-14 12 -26 27 -35 43c-12 25 -16 54 -16 82c-1 35 4 71 11 105c-51 -92 -118 -183 -208 -238z" />
    <glyph glyph-name="U" unicode="&#xda;" horiz-adv-x="688" 
d="M239 18c-26 -16 -58 -28 -89 -27c-19 1 -39 8 -55 19c-30 21 -53 58 -59 95c-11 67 -3 136 9 202c14 78 35 155 56 231c8 27 47 156 49 183c1 13 5 27 14 36c24 24 60 -2 59 -35c0 -19 -5 -38 -10 -56c-34 -129 -73 -258 -89 -390c-6 -45 -12 -91 -7 -136
c2 -20 8 -63 25 -72c22 -12 65 14 85 29c51 37 92 88 127 141c29 44 54 90 78 138c42 85 79 173 117 260c7 19 40 99 53 114c8 9 23 12 34 9c2 -1 5 -2 7 -2c27 1 42 -28 33 -53c-40 -125 -87 -247 -122 -373c-18 -63 -34 -126 -37 -191c-1 -17 0 -35 8 -50
c9 -15 26 -23 40 -32c30 -18 19 -60 -15 -63c-15 -1 -51 22 -63 31c-14 12 -26 27 -35 43c-12 25 -16 54 -16 82c-1 35 4 71 11 105c-51 -92 -118 -183 -208 -238z" />
    <glyph glyph-name="U" unicode="&#xd9;" horiz-adv-x="688" 
d="M239 18c-26 -16 -58 -28 -89 -27c-19 1 -39 8 -55 19c-30 21 -53 58 -59 95c-11 67 -3 136 9 202c14 78 35 155 56 231c8 27 47 156 49 183c1 13 5 27 14 36c24 24 60 -2 59 -35c0 -19 -5 -38 -10 -56c-34 -129 -73 -258 -89 -390c-6 -45 -12 -91 -7 -136
c2 -20 8 -63 25 -72c22 -12 65 14 85 29c51 37 92 88 127 141c29 44 54 90 78 138c42 85 79 173 117 260c7 19 40 99 53 114c8 9 23 12 34 9c2 -1 5 -2 7 -2c27 1 42 -28 33 -53c-40 -125 -87 -247 -122 -373c-18 -63 -34 -126 -37 -191c-1 -17 0 -35 8 -50
c9 -15 26 -23 40 -32c30 -18 19 -60 -15 -63c-15 -1 -51 22 -63 31c-14 12 -26 27 -35 43c-12 25 -16 54 -16 82c-1 35 4 71 11 105c-51 -92 -118 -183 -208 -238z" />
    <glyph glyph-name="V" unicode="V" horiz-adv-x="735" 
d="M329 -12c-27 -18 -61 5 -64 37c-3 27 14 163 16 189c3 60 5 119 2 179c-2 55 -6 112 -20 166c-10 39 -28 79 -56 108c-21 21 -56 30 -84 24c-21 -4 -40 -21 -52 -38c-7 -9 -11 -19 -20 -25c-22 -17 -55 4 -51 32c3 18 36 57 49 69c54 48 148 41 201 -7
c33 -29 57 -70 72 -111c31 -89 38 -185 40 -279c2 -75 -2 -150 -7 -225c42 48 76 103 111 156c41 62 76 129 107 197c28 64 54 131 67 200c4 21 8 42 9 63c0 10 3 21 10 29c14 16 38 14 53 -1c16 -17 9 -74 6 -98c-12 -76 -39 -149 -70 -219c-43 -97 -96 -190 -159 -275
c-39 -52 -79 -103 -128 -145c-2 -1 -8 -12 -10 -13c-6 -6 -15 -8 -22 -13z" />
    <glyph glyph-name="W" unicode="W" horiz-adv-x="983" 
d="M309 21c-4 -21 -25 -34 -45 -26c-4 2 -9 2 -13 3c-10 2 -18 10 -22 19c-7 17 -1 87 0 105c3 98 -3 196 -10 293c-5 66 -10 133 -29 196c-17 53 -50 116 -101 93c-10 -4 -22 -11 -27 -21c-16 -37 -72 -18 -62 21c5 19 20 34 35 47c24 19 56 35 87 32c21 -2 43 -10 60 -23
c28 -20 51 -49 65 -81c26 -57 39 -120 46 -183c14 -124 13 -250 6 -375c38 53 72 109 101 168c57 116 97 241 133 366c5 16 10 34 23 44c7 5 17 7 26 6c1 0 0 1 1 1c14 -4 28 -17 30 -32c12 -68 18 -137 23 -206c8 -90 6 -180 10 -270c0 -11 3 -73 3 -83
c99 128 189 271 233 428c9 30 26 124 14 153c0 1 -6 7 -7 9c-17 25 6 56 35 50c27 -5 40 -45 41 -72c1 -20 1 -40 -1 -60c-1 -14 -11 -77 -15 -90c-1 -1 -2 -3 -2 -4c-1 -15 -25 -76 -30 -90c-53 -127 -126 -245 -209 -355c-7 -9 -41 -53 -50 -61s-20 -17 -32 -21
c-21 -5 -44 11 -52 32c-6 13 -10 76 -11 90c-7 123 -5 247 -10 371c-46 -139 -105 -276 -188 -395c-7 -10 -49 -69 -56 -79z" />
    <glyph glyph-name="X" unicode="X" horiz-adv-x="720" 
d="M105 -2c-29 -19 -73 -18 -93 9c-5 6 -7 14 -7 22c-1 30 33 47 56 28c18 4 50 46 61 61c55 74 105 152 156 230c-8 47 -14 95 -20 143c-7 55 -16 111 -38 162c-5 13 -15 25 -28 29c-9 2 -20 1 -29 -2c-2 -1 -10 -2 -12 -3c-13 -9 -19 -27 -31 -38c-18 -15 -47 -14 -57 7
c-5 12 -9 26 -4 38c10 23 22 47 42 62c14 10 29 20 46 24c33 8 72 8 100 -9c24 -15 44 -38 59 -62c22 -33 35 -72 43 -111c7 -37 12 -75 17 -112c49 69 104 135 166 192c21 19 107 90 134 100c8 3 17 2 25 -1c28 -11 35 -46 14 -67c-4 -5 -28 -18 -33 -21
c-120 -78 -214 -194 -295 -312c8 -77 16 -157 45 -229c2 -5 14 -32 17 -37c8 -12 19 -24 33 -30c9 -4 20 -5 30 -4c21 2 43 11 59 25c13 11 23 26 35 37c17 14 41 7 51 -12c6 -9 6 -22 1 -31c-14 -26 -36 -49 -61 -66c-31 -20 -71 -32 -109 -28c-25 2 -50 12 -69 28
c-29 22 -52 54 -67 87c-19 45 -35 92 -45 140c-37 -57 -74 -114 -115 -169c-22 -30 -46 -61 -77 -80z" />
    <glyph glyph-name="Y" unicode="Y" horiz-adv-x="698" 
d="M243 -10c-32 -3 -65 6 -94 21c-24 12 -45 32 -61 53c-9 11 -16 24 -21 38c-11 33 27 64 58 48c17 -9 23 -31 37 -44c14 -15 34 -26 55 -29c33 -4 68 7 96 26c29 20 54 47 76 76c-16 2 -30 14 -40 26c-30 42 -44 95 -52 147c-10 64 -12 129 -17 194c-3 42 -5 84 -17 124
c-6 19 -16 39 -32 50c-34 22 -82 -10 -109 -39c-18 -19 -29 -44 -34 -69c-2 -7 -4 -43 -6 -49c-9 -22 -36 -29 -53 -13c-9 8 -13 23 -12 36c1 29 6 59 16 86c15 37 41 72 74 95c27 18 59 34 92 36c18 2 36 -1 52 -7c24 -10 45 -28 59 -49c23 -34 36 -75 42 -115
c12 -79 13 -159 22 -238c5 -48 10 -100 39 -137c6 -7 10 -16 14 -24c61 95 109 199 138 308c14 52 24 105 32 159c1 5 4 29 6 34c13 35 59 40 76 7c5 -7 7 -17 6 -25c-8 -51 -17 -101 -29 -151c-37 -147 -97 -292 -185 -417c-28 -40 -62 -79 -101 -109
c-38 -28 -81 -45 -127 -49z" />
    <glyph glyph-name="Y" unicode="&#x178;" horiz-adv-x="698" 
d="M243 -10c-32 -3 -65 6 -94 21c-24 12 -45 32 -61 53c-9 11 -16 24 -21 38c-11 33 27 64 58 48c17 -9 23 -31 37 -44c14 -15 34 -26 55 -29c33 -4 68 7 96 26c29 20 54 47 76 76c-16 2 -30 14 -40 26c-30 42 -44 95 -52 147c-10 64 -12 129 -17 194c-3 42 -5 84 -17 124
c-6 19 -16 39 -32 50c-34 22 -82 -10 -109 -39c-18 -19 -29 -44 -34 -69c-2 -7 -4 -43 -6 -49c-9 -22 -36 -29 -53 -13c-9 8 -13 23 -12 36c1 29 6 59 16 86c15 37 41 72 74 95c27 18 59 34 92 36c18 2 36 -1 52 -7c24 -10 45 -28 59 -49c23 -34 36 -75 42 -115
c12 -79 13 -159 22 -238c5 -48 10 -100 39 -137c6 -7 10 -16 14 -24c61 95 109 199 138 308c14 52 24 105 32 159c1 5 4 29 6 34c13 35 59 40 76 7c5 -7 7 -17 6 -25c-8 -51 -17 -101 -29 -151c-37 -147 -97 -292 -185 -417c-28 -40 -62 -79 -101 -109
c-38 -28 -81 -45 -127 -49z" />
    <glyph glyph-name="Y" unicode="&#xdd;" horiz-adv-x="698" 
d="M243 -10c-32 -3 -65 6 -94 21c-24 12 -45 32 -61 53c-9 11 -16 24 -21 38c-11 33 27 64 58 48c17 -9 23 -31 37 -44c14 -15 34 -26 55 -29c33 -4 68 7 96 26c29 20 54 47 76 76c-16 2 -30 14 -40 26c-30 42 -44 95 -52 147c-10 64 -12 129 -17 194c-3 42 -5 84 -17 124
c-6 19 -16 39 -32 50c-34 22 -82 -10 -109 -39c-18 -19 -29 -44 -34 -69c-2 -7 -4 -43 -6 -49c-9 -22 -36 -29 -53 -13c-9 8 -13 23 -12 36c1 29 6 59 16 86c15 37 41 72 74 95c27 18 59 34 92 36c18 2 36 -1 52 -7c24 -10 45 -28 59 -49c23 -34 36 -75 42 -115
c12 -79 13 -159 22 -238c5 -48 10 -100 39 -137c6 -7 10 -16 14 -24c61 95 109 199 138 308c14 52 24 105 32 159c1 5 4 29 6 34c13 35 59 40 76 7c5 -7 7 -17 6 -25c-8 -51 -17 -101 -29 -151c-37 -147 -97 -292 -185 -417c-28 -40 -62 -79 -101 -109
c-38 -28 -81 -45 -127 -49z" />
    <glyph glyph-name="Z" unicode="Z" horiz-adv-x="639" 
d="M541 17c-47 -15 -98 -22 -146 -18c-57 4 -111 25 -166 35c-26 5 -52 5 -77 4c-22 -2 -44 -9 -64 -17c-7 -2 -37 -12 -44 -13c-26 0 -42 25 -34 49c5 13 39 56 48 67c86 109 164 226 252 335c60 74 125 144 192 213c-45 1 -243 7 -286 -5c-26 -7 -51 -22 -67 -43
c-9 -12 -14 -28 -27 -37c-24 -15 -52 7 -49 35c1 6 11 26 14 30c18 29 46 52 76 68c26 15 56 20 86 24c40 4 80 6 120 7c27 1 178 1 205 -1c27 -1 49 -23 48 -50c-1 -14 -9 -28 -19 -38c-21 -23 -45 -43 -67 -65c-32 -31 -63 -63 -94 -96c-113 -123 -207 -261 -310 -393
c53 11 108 7 161 -4c36 -8 72 -18 109 -19c50 -1 99 12 146 28c16 5 34 13 50 8c21 -6 34 -31 22 -50c-4 -8 -10 -16 -17 -22c-17 -16 -40 -25 -62 -32z" />
    <glyph glyph-name="bracketleft" unicode="[" horiz-adv-x="302" 
d="M262 -133c-33 -2 -187 -20 -220 -15c-11 2 -22 7 -30 14c-11 9 -16 25 -16 40c0 17 24 90 29 107c9 28 60 198 68 227c30 114 56 229 73 345c11 68 16 136 25 205c1 8 6 54 9 63c2 5 0 11 2 17c2 11 13 21 24 24c9 3 53 3 63 3c10 1 73 7 84 8c7 1 40 5 46 5
c13 -1 27 -6 36 -15c19 -15 16 -48 -5 -61c-8 -4 -15 -9 -24 -11c-7 -2 -40 -3 -47 -3c-36 -2 -73 -3 -109 0c-1 -10 -4 -74 -5 -85c-1 -28 -6 -56 -10 -85c-23 -148 -48 -296 -88 -441c-16 -60 -32 -121 -52 -179c-11 -31 -20 -63 -30 -94c57 2 113 15 170 19
c24 1 48 -23 46 -46c-1 -12 -6 -25 -16 -31c-7 -5 -15 -10 -23 -11z" />
    <glyph glyph-name="backslash" unicode="\" horiz-adv-x="331" 
d="M339 -152c-10 -33 -52 -37 -73 -9c-10 13 -23 74 -26 90c-64 287 -163 565 -224 853c-3 17 -7 37 0 52c10 19 38 23 53 8c9 -10 17 -25 15 -39c13 -44 88 -312 100 -356c46 -157 96 -314 132 -474c3 -14 22 -90 23 -104c1 -4 1 -17 0 -21z" />
    <glyph glyph-name="bracketright" unicode="]" horiz-adv-x="278" 
d="M-23 -168c-14 -3 -65 -16 -79 -12c-11 3 -22 9 -29 18c-15 20 -13 48 6 63c10 7 22 11 34 12c42 6 84 15 126 17c1 111 23 220 41 330c5 32 12 64 18 97c23 116 42 233 67 349c7 31 14 61 15 92c-21 0 -42 -3 -63 -4c-14 -1 -69 1 -82 6c-9 3 -16 9 -21 16
c-15 21 3 49 28 53c21 3 128 18 148 18c35 0 70 -21 69 -56c-1 -14 0 -29 -2 -43c-18 -100 -44 -198 -58 -299c-22 -153 -60 -305 -75 -459c-2 -18 -9 -116 -13 -134c-3 -12 -9 -24 -19 -32c-10 -9 -23 -13 -36 -16c-9 -3 -65 -13 -75 -16z" />
    <glyph glyph-name="asciicircum" unicode="^" horiz-adv-x="437" 
d="M407 426c-7 -27 -41 -36 -60 -17c-17 17 -20 44 -26 67c-16 56 -31 113 -54 166c-4 9 -8 18 -14 25c-28 -20 -48 -49 -69 -76c-13 -18 -85 -125 -99 -142c-6 -7 -16 -11 -24 -11c-30 0 -47 37 -25 58c4 4 6 10 9 16c30 59 68 115 112 165c22 25 47 51 79 63
c15 6 35 4 49 -4c18 -10 31 -28 41 -46c9 -18 17 -37 23 -56c19 -53 34 -108 51 -163c5 -14 11 -30 7 -45z" />
    <glyph glyph-name="underscore" unicode="_" horiz-adv-x="540" 
d="M531 -156c-11 -14 -34 -23 -52 -18c-14 5 -83 10 -97 11c-84 7 -169 16 -253 13c-24 0 -47 -3 -71 -5c-7 0 -14 2 -21 2c-31 -2 -49 33 -28 56c7 7 19 8 27 13c9 6 46 10 55 11c133 15 267 2 400 -3c19 0 38 -16 45 -33c7 -15 5 -34 -5 -47z" />
    <glyph glyph-name="a" unicode="a" horiz-adv-x="480" 
d="M437 -6c-36 -8 -64 41 -78 75c-13 30 -22 61 -25 94c-20 -34 -42 -67 -69 -96c-27 -30 -64 -56 -104 -64c-70 -15 -137 36 -143 108c-5 51 13 104 36 150c28 57 66 111 113 153c28 26 61 50 97 61c28 9 59 9 87 2c18 -4 35 -16 48 -30c17 5 34 -4 40 -20
c9 -23 -19 -100 -25 -124c-14 -58 -23 -122 -5 -179c5 -14 23 -59 35 -69c2 -2 5 -3 7 -5c20 -18 12 -50 -14 -56zM126 73c55 -14 113 65 142 114c36 59 61 123 85 188c1 2 -1 12 -2 14c-5 2 -25 3 -31 3c-48 -6 -93 -37 -128 -72c-43 -44 -112 -153 -95 -213
c4 -14 15 -30 29 -34z" />
    <glyph glyph-name="a" unicode="&#xe5;" horiz-adv-x="480" 
d="M437 -6c-36 -8 -64 41 -78 75c-13 30 -22 61 -25 94c-20 -34 -42 -67 -69 -96c-27 -30 -64 -56 -104 -64c-70 -15 -137 36 -143 108c-5 51 13 104 36 150c28 57 66 111 113 153c28 26 61 50 97 61c28 9 59 9 87 2c18 -4 35 -16 48 -30c17 5 34 -4 40 -20
c9 -23 -19 -100 -25 -124c-14 -58 -23 -122 -5 -179c5 -14 23 -59 35 -69c2 -2 5 -3 7 -5c20 -18 12 -50 -14 -56zM126 73c55 -14 113 65 142 114c36 59 61 123 85 188c1 2 -1 12 -2 14c-5 2 -25 3 -31 3c-48 -6 -93 -37 -128 -72c-43 -44 -112 -153 -95 -213
c4 -14 15 -30 29 -34z" />
    <glyph glyph-name="a" unicode="&#xe4;" horiz-adv-x="480" 
d="M437 -6c-36 -8 -64 41 -78 75c-13 30 -22 61 -25 94c-20 -34 -42 -67 -69 -96c-27 -30 -64 -56 -104 -64c-70 -15 -137 36 -143 108c-5 51 13 104 36 150c28 57 66 111 113 153c28 26 61 50 97 61c28 9 59 9 87 2c18 -4 35 -16 48 -30c17 5 34 -4 40 -20
c9 -23 -19 -100 -25 -124c-14 -58 -23 -122 -5 -179c5 -14 23 -59 35 -69c2 -2 5 -3 7 -5c20 -18 12 -50 -14 -56zM126 73c55 -14 113 65 142 114c36 59 61 123 85 188c1 2 -1 12 -2 14c-5 2 -25 3 -31 3c-48 -6 -93 -37 -128 -72c-43 -44 -112 -153 -95 -213
c4 -14 15 -30 29 -34z" />
    <glyph glyph-name="a" unicode="&#xe3;" horiz-adv-x="480" 
d="M437 -6c-36 -8 -64 41 -78 75c-13 30 -22 61 -25 94c-20 -34 -42 -67 -69 -96c-27 -30 -64 -56 -104 -64c-70 -15 -137 36 -143 108c-5 51 13 104 36 150c28 57 66 111 113 153c28 26 61 50 97 61c28 9 59 9 87 2c18 -4 35 -16 48 -30c17 5 34 -4 40 -20
c9 -23 -19 -100 -25 -124c-14 -58 -23 -122 -5 -179c5 -14 23 -59 35 -69c2 -2 5 -3 7 -5c20 -18 12 -50 -14 -56zM126 73c55 -14 113 65 142 114c36 59 61 123 85 188c1 2 -1 12 -2 14c-5 2 -25 3 -31 3c-48 -6 -93 -37 -128 -72c-43 -44 -112 -153 -95 -213
c4 -14 15 -30 29 -34z" />
    <glyph glyph-name="a" unicode="&#xe2;" horiz-adv-x="480" 
d="M437 -6c-36 -8 -64 41 -78 75c-13 30 -22 61 -25 94c-20 -34 -42 -67 -69 -96c-27 -30 -64 -56 -104 -64c-70 -15 -137 36 -143 108c-5 51 13 104 36 150c28 57 66 111 113 153c28 26 61 50 97 61c28 9 59 9 87 2c18 -4 35 -16 48 -30c17 5 34 -4 40 -20
c9 -23 -19 -100 -25 -124c-14 -58 -23 -122 -5 -179c5 -14 23 -59 35 -69c2 -2 5 -3 7 -5c20 -18 12 -50 -14 -56zM126 73c55 -14 113 65 142 114c36 59 61 123 85 188c1 2 -1 12 -2 14c-5 2 -25 3 -31 3c-48 -6 -93 -37 -128 -72c-43 -44 -112 -153 -95 -213
c4 -14 15 -30 29 -34z" />
    <glyph glyph-name="a" unicode="&#xe1;" horiz-adv-x="480" 
d="M437 -6c-36 -8 -64 41 -78 75c-13 30 -22 61 -25 94c-20 -34 -42 -67 -69 -96c-27 -30 -64 -56 -104 -64c-70 -15 -137 36 -143 108c-5 51 13 104 36 150c28 57 66 111 113 153c28 26 61 50 97 61c28 9 59 9 87 2c18 -4 35 -16 48 -30c17 5 34 -4 40 -20
c9 -23 -19 -100 -25 -124c-14 -58 -23 -122 -5 -179c5 -14 23 -59 35 -69c2 -2 5 -3 7 -5c20 -18 12 -50 -14 -56zM126 73c55 -14 113 65 142 114c36 59 61 123 85 188c1 2 -1 12 -2 14c-5 2 -25 3 -31 3c-48 -6 -93 -37 -128 -72c-43 -44 -112 -153 -95 -213
c4 -14 15 -30 29 -34z" />
    <glyph glyph-name="a" unicode="&#xe0;" horiz-adv-x="480" 
d="M437 -6c-36 -8 -64 41 -78 75c-13 30 -22 61 -25 94c-20 -34 -42 -67 -69 -96c-27 -30 -64 -56 -104 -64c-70 -15 -137 36 -143 108c-5 51 13 104 36 150c28 57 66 111 113 153c28 26 61 50 97 61c28 9 59 9 87 2c18 -4 35 -16 48 -30c17 5 34 -4 40 -20
c9 -23 -19 -100 -25 -124c-14 -58 -23 -122 -5 -179c5 -14 23 -59 35 -69c2 -2 5 -3 7 -5c20 -18 12 -50 -14 -56zM126 73c55 -14 113 65 142 114c36 59 61 123 85 188c1 2 -1 12 -2 14c-5 2 -25 3 -31 3c-48 -6 -93 -37 -128 -72c-43 -44 -112 -153 -95 -213
c4 -14 15 -30 29 -34z" />
    <glyph glyph-name="b" unicode="b" horiz-adv-x="435" 
d="M278 44c-48 -39 -115 -59 -177 -58c-20 1 -42 5 -59 16c-28 20 -31 63 1 75c-4 6 -8 14 -8 21c0 5 -2 34 -1 39c13 123 45 243 81 361c8 27 54 180 64 206c3 9 6 17 11 24c20 25 62 5 58 -27c-5 -37 -59 -232 -68 -269c28 28 61 56 100 65c62 13 119 -30 129 -93
c4 -24 5 -48 3 -72c-4 -61 -18 -123 -46 -178c-21 -42 -52 -80 -88 -110zM95 72c8 -1 16 -1 24 -1c46 3 93 23 127 55c46 43 74 107 85 170c6 31 16 101 -8 123c-17 15 -46 -1 -64 -15c-57 -43 -98 -109 -122 -176c-12 -33 -15 -68 -21 -102c-1 -2 -6 -15 -6 -17
c-1 -13 -5 -28 -15 -37z" />
    <glyph glyph-name="c" unicode="c" horiz-adv-x="442" 
d="M245 -7c-26 -13 -58 -19 -87 -14c-20 4 -41 12 -57 25c-21 15 -38 36 -51 58c-14 26 -23 56 -26 86c-6 48 2 97 16 143c20 69 51 140 104 188c22 19 48 36 76 44c56 15 143 6 171 -44c5 -9 10 -19 11 -29c1 -9 1 -42 -2 -51c-14 -37 -66 -31 -72 8c-1 4 0 17 -3 19
c-17 17 -65 13 -87 5c-20 -7 -36 -22 -50 -37c-58 -61 -90 -157 -80 -241c7 -55 49 -108 100 -87c24 9 45 24 65 40c29 22 56 48 83 74c6 6 12 13 20 17c26 14 56 -13 47 -41c-4 -12 -37 -47 -46 -56c-39 -42 -81 -82 -132 -107z" />
    <glyph glyph-name="c" unicode="&#xe7;" horiz-adv-x="442" 
d="M245 -7c-26 -13 -58 -19 -87 -14c-20 4 -41 12 -57 25c-21 15 -38 36 -51 58c-14 26 -23 56 -26 86c-6 48 2 97 16 143c20 69 51 140 104 188c22 19 48 36 76 44c56 15 143 6 171 -44c5 -9 10 -19 11 -29c1 -9 1 -42 -2 -51c-14 -37 -66 -31 -72 8c-1 4 0 17 -3 19
c-17 17 -65 13 -87 5c-20 -7 -36 -22 -50 -37c-58 -61 -90 -157 -80 -241c7 -55 49 -108 100 -87c24 9 45 24 65 40c29 22 56 48 83 74c6 6 12 13 20 17c26 14 56 -13 47 -41c-4 -12 -37 -47 -46 -56c-39 -42 -81 -82 -132 -107z" />
    <glyph glyph-name="d" unicode="d" horiz-adv-x="657" 
d="M463 -13c-21 -10 -44 -8 -62 6c-17 12 -27 35 -31 56c-1 2 -4 14 -4 16c-4 44 4 88 14 131c-43 -65 -95 -129 -162 -169c-24 -15 -52 -23 -81 -24c-27 -1 -56 12 -76 31c-15 15 -26 35 -32 55c-11 36 -9 75 -4 111c7 47 21 92 38 136c20 52 52 101 94 139
c37 33 85 58 135 62c47 4 99 -3 139 -29c13 -9 24 -20 32 -33c28 78 60 156 95 232c4 9 23 52 29 60c21 26 61 8 59 -25c-1 -7 -5 -13 -7 -19c-4 -10 -30 -73 -34 -83c-56 -144 -104 -293 -139 -443c-8 -32 -14 -64 -17 -96c-1 -5 -2 -32 -3 -36c0 -3 -1 -7 0 -6
c14 10 26 22 38 34c11 12 21 24 29 38c5 8 11 17 20 21c28 12 54 -17 42 -45c-15 -33 -40 -60 -65 -86c-14 -14 -29 -26 -47 -34zM138 114c3 -6 11 -3 17 -1c25 7 46 25 66 42c39 35 74 74 106 116c28 38 50 81 68 125c-3 5 -13 18 -19 19c-33 8 -71 7 -102 -6
c-14 -5 -26 -13 -37 -22c-32 -26 -56 -63 -73 -101c-20 -45 -33 -97 -31 -147c1 -9 2 -17 5 -25z" />
    <glyph glyph-name="e" unicode="e" horiz-adv-x="441" 
d="M261 24c-29 -14 -61 -24 -93 -23c-28 0 -58 7 -81 22c-29 19 -52 50 -61 83c-10 34 -9 71 -1 105c20 100 85 199 170 255c29 19 61 34 94 41c22 5 45 6 66 -1c39 -12 65 -49 64 -89c0 -27 -9 -53 -24 -75c-15 -24 -37 -42 -58 -59c-33 -26 -70 -47 -109 -63
c-29 -12 -64 -17 -94 -7c-11 3 -21 9 -30 17c-8 -24 -13 -50 -12 -75c0 -16 4 -34 13 -47c7 -11 18 -20 30 -25c25 -10 55 -6 80 4c54 21 100 61 148 95c15 11 35 4 46 -11c18 -28 -17 -58 -43 -79c-33 -26 -67 -50 -105 -68zM135 299c6 -3 13 -8 20 -8c35 1 67 23 95 43
c19 13 68 55 73 77c2 10 -2 16 -12 18c-9 1 -19 -1 -28 -4c-61 -20 -115 -70 -148 -126z" />
    <glyph glyph-name="e" unicode="&#xeb;" horiz-adv-x="441" 
d="M261 24c-29 -14 -61 -24 -93 -23c-28 0 -58 7 -81 22c-29 19 -52 50 -61 83c-10 34 -9 71 -1 105c20 100 85 199 170 255c29 19 61 34 94 41c22 5 45 6 66 -1c39 -12 65 -49 64 -89c0 -27 -9 -53 -24 -75c-15 -24 -37 -42 -58 -59c-33 -26 -70 -47 -109 -63
c-29 -12 -64 -17 -94 -7c-11 3 -21 9 -30 17c-8 -24 -13 -50 -12 -75c0 -16 4 -34 13 -47c7 -11 18 -20 30 -25c25 -10 55 -6 80 4c54 21 100 61 148 95c15 11 35 4 46 -11c18 -28 -17 -58 -43 -79c-33 -26 -67 -50 -105 -68zM135 299c6 -3 13 -8 20 -8c35 1 67 23 95 43
c19 13 68 55 73 77c2 10 -2 16 -12 18c-9 1 -19 -1 -28 -4c-61 -20 -115 -70 -148 -126z" />
    <glyph glyph-name="e" unicode="&#xea;" horiz-adv-x="441" 
d="M261 24c-29 -14 -61 -24 -93 -23c-28 0 -58 7 -81 22c-29 19 -52 50 -61 83c-10 34 -9 71 -1 105c20 100 85 199 170 255c29 19 61 34 94 41c22 5 45 6 66 -1c39 -12 65 -49 64 -89c0 -27 -9 -53 -24 -75c-15 -24 -37 -42 -58 -59c-33 -26 -70 -47 -109 -63
c-29 -12 -64 -17 -94 -7c-11 3 -21 9 -30 17c-8 -24 -13 -50 -12 -75c0 -16 4 -34 13 -47c7 -11 18 -20 30 -25c25 -10 55 -6 80 4c54 21 100 61 148 95c15 11 35 4 46 -11c18 -28 -17 -58 -43 -79c-33 -26 -67 -50 -105 -68zM135 299c6 -3 13 -8 20 -8c35 1 67 23 95 43
c19 13 68 55 73 77c2 10 -2 16 -12 18c-9 1 -19 -1 -28 -4c-61 -20 -115 -70 -148 -126z" />
    <glyph glyph-name="e" unicode="&#xe9;" horiz-adv-x="441" 
d="M261 24c-29 -14 -61 -24 -93 -23c-28 0 -58 7 -81 22c-29 19 -52 50 -61 83c-10 34 -9 71 -1 105c20 100 85 199 170 255c29 19 61 34 94 41c22 5 45 6 66 -1c39 -12 65 -49 64 -89c0 -27 -9 -53 -24 -75c-15 -24 -37 -42 -58 -59c-33 -26 -70 -47 -109 -63
c-29 -12 -64 -17 -94 -7c-11 3 -21 9 -30 17c-8 -24 -13 -50 -12 -75c0 -16 4 -34 13 -47c7 -11 18 -20 30 -25c25 -10 55 -6 80 4c54 21 100 61 148 95c15 11 35 4 46 -11c18 -28 -17 -58 -43 -79c-33 -26 -67 -50 -105 -68zM135 299c6 -3 13 -8 20 -8c35 1 67 23 95 43
c19 13 68 55 73 77c2 10 -2 16 -12 18c-9 1 -19 -1 -28 -4c-61 -20 -115 -70 -148 -126z" />
    <glyph glyph-name="e" unicode="&#xe8;" horiz-adv-x="441" 
d="M261 24c-29 -14 -61 -24 -93 -23c-28 0 -58 7 -81 22c-29 19 -52 50 -61 83c-10 34 -9 71 -1 105c20 100 85 199 170 255c29 19 61 34 94 41c22 5 45 6 66 -1c39 -12 65 -49 64 -89c0 -27 -9 -53 -24 -75c-15 -24 -37 -42 -58 -59c-33 -26 -70 -47 -109 -63
c-29 -12 -64 -17 -94 -7c-11 3 -21 9 -30 17c-8 -24 -13 -50 -12 -75c0 -16 4 -34 13 -47c7 -11 18 -20 30 -25c25 -10 55 -6 80 4c54 21 100 61 148 95c15 11 35 4 46 -11c18 -28 -17 -58 -43 -79c-33 -26 -67 -50 -105 -68zM135 299c6 -3 13 -8 20 -8c35 1 67 23 95 43
c19 13 68 55 73 77c2 10 -2 16 -12 18c-9 1 -19 -1 -28 -4c-61 -20 -115 -70 -148 -126z" />
    <glyph glyph-name="f" unicode="f" horiz-adv-x="575" 
d="M29 -200c-29 -15 -61 -27 -94 -27c-22 -1 -45 7 -64 19c-3 2 -18 16 -21 19c-6 6 -13 12 -16 20c-6 19 1 42 21 48c8 2 18 4 25 1c27 -12 60 -9 87 1c50 17 90 62 116 109c60 105 86 227 117 345c-46 -8 -92 -17 -138 -27c-12 -3 -26 -2 -37 5c-19 14 -18 42 1 55
c29 21 165 55 200 62c16 55 36 110 61 162c22 43 50 86 88 116c24 18 51 32 80 40c21 5 43 6 64 1c16 -5 33 -16 41 -32c6 -13 2 -31 -4 -45c-10 -24 -44 -27 -58 -4c-24 -3 -48 -15 -67 -30c-27 -23 -48 -54 -64 -86c-17 -33 -31 -68 -43 -103c27 4 55 7 82 7
c21 0 41 -1 61 -8c21 -6 48 -31 48 -53c1 -31 -29 -52 -57 -39c-1 0 -5 3 -6 3c-53 5 -106 -1 -158 -8c-28 -100 -51 -201 -86 -298c-22 -61 -48 -121 -87 -172c-25 -33 -56 -63 -92 -81z" />
    <glyph glyph-name="g" unicode="g" horiz-adv-x="515" 
d="M103 -282c-30 -3 -62 3 -89 16c-20 10 -38 25 -55 40c-13 11 -45 57 -50 73c-7 28 18 54 46 47c17 -4 78 -50 92 -58c13 -7 27 -14 41 -13c36 2 69 24 95 48c21 20 35 44 49 69c46 85 75 179 107 271c-21 -33 -44 -66 -69 -96c-21 -25 -45 -49 -73 -65
c-18 -11 -40 -18 -61 -18c-12 0 -24 2 -35 6c-25 9 -45 30 -57 53c-19 35 -22 79 -21 119c3 89 44 180 105 244c28 29 62 56 100 70c62 22 159 18 194 -38c8 10 20 18 32 20c19 5 38 -10 44 -28c4 -11 3 -23 0 -34c-17 -70 -131 -427 -158 -494c-12 -28 -23 -56 -38 -82
c-25 -43 -56 -84 -97 -111c-30 -20 -66 -36 -102 -39zM135 117c8 -3 18 0 25 5c25 16 45 40 63 63c54 71 99 147 146 221c-1 6 -4 26 -7 31c-6 7 -18 8 -27 8c-14 1 -29 0 -42 -4c-31 -9 -60 -26 -84 -47c-49 -42 -81 -106 -91 -169c-5 -30 -5 -63 5 -92c2 -4 7 -15 12 -16z
" />
    <glyph glyph-name="h" unicode="h" horiz-adv-x="546" 
d="M413 -3c-15 -5 -32 -7 -47 -2s-28 17 -36 30c-11 19 -13 42 -13 64c1 71 17 141 34 210c6 23 30 112 26 135c-16 -1 -32 -10 -44 -20c-93 -72 -156 -181 -202 -289c-15 -34 -22 -72 -41 -104c-23 -40 -84 -19 -76 27c2 16 30 97 35 112c29 95 56 190 81 286
c22 80 40 161 51 243c0 7 4 39 7 45c3 9 11 17 20 21c28 13 56 -11 47 -40c0 -1 -3 -7 -3 -8c-3 -20 -4 -41 -6 -62c-7 -78 -21 -155 -38 -232c21 24 44 47 70 66c25 19 52 35 82 41c50 9 98 -22 104 -72c4 -32 -1 -65 -8 -96c-13 -61 -31 -121 -42 -182
c-5 -30 -11 -61 -10 -91c13 5 62 36 72 47c6 6 16 9 25 9c28 -2 42 -33 26 -56c-17 -23 -87 -74 -114 -82z" />
    <glyph glyph-name="i" unicode="i" horiz-adv-x="278" 
d="M226 603c-18 -15 -46 -11 -59 10c-7 12 -7 29 -4 43c3 13 9 26 14 39c0 16 13 31 26 41c25 19 65 -11 57 -42c-5 -19 -20 -78 -34 -91zM154 16c-19 -10 -42 -18 -63 -15c-17 2 -33 11 -44 24c-14 19 -22 44 -22 68c0 19 1 39 5 57c20 86 57 167 83 251
c-4 -3 -24 -16 -27 -21c-20 -29 -65 -6 -59 29c5 26 61 61 84 74c16 8 37 15 54 9c12 -5 22 -17 26 -30c5 -17 2 -36 -1 -53c-11 -49 -29 -97 -43 -145c-10 -36 -53 -153 -42 -188c15 2 62 31 74 39c27 17 59 -6 52 -36c-1 -7 -5 -15 -10 -19c-21 -17 -44 -31 -67 -44z" />
    <glyph glyph-name="i" unicode="&#xef;" horiz-adv-x="278" 
d="M226 603c-18 -15 -46 -11 -59 10c-7 12 -7 29 -4 43c3 13 9 26 14 39c0 16 13 31 26 41c25 19 65 -11 57 -42c-5 -19 -20 -78 -34 -91zM154 16c-19 -10 -42 -18 -63 -15c-17 2 -33 11 -44 24c-14 19 -22 44 -22 68c0 19 1 39 5 57c20 86 57 167 83 251
c-4 -3 -24 -16 -27 -21c-20 -29 -65 -6 -59 29c5 26 61 61 84 74c16 8 37 15 54 9c12 -5 22 -17 26 -30c5 -17 2 -36 -1 -53c-11 -49 -29 -97 -43 -145c-10 -36 -53 -153 -42 -188c15 2 62 31 74 39c27 17 59 -6 52 -36c-1 -7 -5 -15 -10 -19c-21 -17 -44 -31 -67 -44z" />
    <glyph glyph-name="i" unicode="&#xee;" horiz-adv-x="278" 
d="M226 603c-18 -15 -46 -11 -59 10c-7 12 -7 29 -4 43c3 13 9 26 14 39c0 16 13 31 26 41c25 19 65 -11 57 -42c-5 -19 -20 -78 -34 -91zM154 16c-19 -10 -42 -18 -63 -15c-17 2 -33 11 -44 24c-14 19 -22 44 -22 68c0 19 1 39 5 57c20 86 57 167 83 251
c-4 -3 -24 -16 -27 -21c-20 -29 -65 -6 -59 29c5 26 61 61 84 74c16 8 37 15 54 9c12 -5 22 -17 26 -30c5 -17 2 -36 -1 -53c-11 -49 -29 -97 -43 -145c-10 -36 -53 -153 -42 -188c15 2 62 31 74 39c27 17 59 -6 52 -36c-1 -7 -5 -15 -10 -19c-21 -17 -44 -31 -67 -44z" />
    <glyph glyph-name="i" unicode="&#xed;" horiz-adv-x="278" 
d="M226 603c-18 -15 -46 -11 -59 10c-7 12 -7 29 -4 43c3 13 9 26 14 39c0 16 13 31 26 41c25 19 65 -11 57 -42c-5 -19 -20 -78 -34 -91zM154 16c-19 -10 -42 -18 -63 -15c-17 2 -33 11 -44 24c-14 19 -22 44 -22 68c0 19 1 39 5 57c20 86 57 167 83 251
c-4 -3 -24 -16 -27 -21c-20 -29 -65 -6 -59 29c5 26 61 61 84 74c16 8 37 15 54 9c12 -5 22 -17 26 -30c5 -17 2 -36 -1 -53c-11 -49 -29 -97 -43 -145c-10 -36 -53 -153 -42 -188c15 2 62 31 74 39c27 17 59 -6 52 -36c-1 -7 -5 -15 -10 -19c-21 -17 -44 -31 -67 -44z" />
    <glyph glyph-name="i" unicode="&#xec;" horiz-adv-x="278" 
d="M226 603c-18 -15 -46 -11 -59 10c-7 12 -7 29 -4 43c3 13 9 26 14 39c0 16 13 31 26 41c25 19 65 -11 57 -42c-5 -19 -20 -78 -34 -91zM154 16c-19 -10 -42 -18 -63 -15c-17 2 -33 11 -44 24c-14 19 -22 44 -22 68c0 19 1 39 5 57c20 86 57 167 83 251
c-4 -3 -24 -16 -27 -21c-20 -29 -65 -6 -59 29c5 26 61 61 84 74c16 8 37 15 54 9c12 -5 22 -17 26 -30c5 -17 2 -36 -1 -53c-11 -49 -29 -97 -43 -145c-10 -36 -53 -153 -42 -188c15 2 62 31 74 39c27 17 59 -6 52 -36c-1 -7 -5 -15 -10 -19c-21 -17 -44 -31 -67 -44z" />
    <glyph glyph-name="j" unicode="j" horiz-adv-x="336" 
d="M295 630c-26 -16 -58 7 -61 37c-2 14 2 30 9 42c8 14 25 24 40 25c55 1 59 -75 12 -104zM-132 -278c-32 -6 -68 -6 -96 9c-63 33 -106 123 -84 190c9 27 48 35 67 14c11 -12 15 -29 23 -43s32 -57 48 -62c29 -10 77 24 98 45c28 28 50 61 70 95c49 84 85 175 116 267
c17 50 34 100 47 151c-18 -12 -42 -23 -63 -17c-41 12 -29 73 14 68c18 12 32 28 49 41c12 10 27 18 43 19c26 0 49 -22 50 -47c1 -27 -2 -53 -8 -78c-7 -35 -17 -69 -27 -102c-23 -79 -49 -157 -81 -232c-20 -47 -41 -93 -68 -136c-25 -40 -52 -80 -86 -114
c-31 -31 -69 -60 -112 -68z" />
    <glyph glyph-name="k" unicode="k" horiz-adv-x="493" 
d="M363 -6c-22 -8 -49 -7 -71 3c-25 12 -43 37 -55 62c-28 63 -38 134 -45 204c-12 -5 -26 -8 -39 -9c0 -4 -2 -8 -3 -11c-18 -71 -35 -142 -55 -212c-4 -12 -9 -26 -19 -34c-23 -18 -57 -4 -61 25c-2 11 11 59 13 70c7 31 50 209 59 240c18 62 119 369 148 427
c3 6 7 12 12 17c17 16 45 7 53 -15c3 -8 -1 -36 -4 -45c-42 -119 -84 -239 -117 -361c27 19 182 155 209 175c13 9 28 18 44 17c16 0 34 -11 40 -26c0 -2 4 -12 4 -14c5 -21 -13 -40 -34 -39c-61 -56 -118 -117 -185 -166c3 -9 12 -63 13 -73c8 -47 17 -95 35 -139
c5 -12 12 -25 23 -30s33 8 43 15c13 9 25 19 37 29c23 20 58 -1 53 -30c-2 -15 -17 -26 -28 -36c-21 -18 -44 -35 -70 -44z" />
    <glyph glyph-name="l" unicode="l" horiz-adv-x="315" 
d="M106 -3c-18 -7 -43 -7 -57 6c-16 12 -25 34 -27 53c-4 47 5 94 14 139c33 167 90 330 163 484c13 28 27 57 39 86c11 25 45 26 62 5c8 -11 7 -27 2 -40c-27 -72 -55 -145 -81 -218c-47 -131 -92 -265 -113 -403c-2 -12 -3 -24 -4 -37c14 9 28 19 41 28
c24 17 58 -3 52 -32c-3 -15 -20 -24 -32 -34c-18 -14 -37 -29 -59 -37z" />
    <glyph glyph-name="m" unicode="m" horiz-adv-x="913" 
d="M758 0c-17 -7 -36 -13 -55 -9c-10 2 -21 7 -29 13c-12 10 -20 24 -24 38c-9 27 -6 56 -2 84c7 46 24 91 36 136c10 36 39 152 27 187c-19 -2 -36 -14 -52 -24c-14 -8 -25 -19 -36 -29c-35 -32 -65 -69 -93 -107c-46 -63 -85 -131 -120 -200c-8 -18 -19 -37 -20 -57
c-1 -13 -11 -26 -23 -33c-8 -5 -20 -5 -28 -1c-18 8 -29 32 -28 51c4 53 110 310 122 362c3 14 6 46 -3 57c-1 1 -4 0 -5 0c-20 -4 -37 -15 -54 -26c-84 -58 -144 -149 -192 -239c-33 -61 -63 -123 -91 -186c-22 -48 -85 -23 -72 28c14 56 105 390 121 446c-3 7 -4 17 -2 24
c5 17 19 32 36 37s34 -8 39 -26c3 -7 0 -36 -2 -43c-11 -53 -26 -104 -40 -156c45 71 103 138 174 184c29 19 65 36 99 31c25 -4 48 -20 59 -43c15 -30 15 -67 10 -100c27 35 57 67 91 95c26 21 57 39 90 46c18 3 39 3 56 -5c15 -6 28 -16 37 -29c11 -17 18 -38 19 -58
c3 -30 1 -60 -5 -89c-10 -59 -33 -115 -51 -172c-11 -36 -22 -72 -23 -109v-11c18 5 35 14 52 24c25 15 51 30 72 52c25 24 65 -5 54 -37c-6 -17 -22 -28 -36 -39c-33 -26 -69 -50 -108 -67z" />
    <glyph glyph-name="n" unicode="n" horiz-adv-x="596" 
d="M92 16c-2 -25 -29 -36 -53 -28c-7 3 -15 9 -19 16s-7 29 -6 37c16 69 38 136 57 203c8 30 54 200 60 230c-9 30 23 54 52 39c8 -4 14 -12 17 -20c3 -11 4 -23 2 -34c-6 -29 -46 -193 -53 -221c43 58 88 116 141 166c24 23 51 45 82 56c15 6 33 9 49 7
c21 -3 41 -17 52 -35c12 -21 17 -47 18 -72c3 -33 1 -67 -3 -100c-3 -25 -30 -157 -30 -182c13 6 61 33 70 43c30 30 77 -12 51 -46c-11 -14 -64 -58 -81 -67c-13 -6 -26 -13 -41 -15c-19 -3 -41 2 -56 13s-23 29 -27 46c-7 26 -4 53 1 79c10 64 27 127 33 191
c3 23 5 47 -3 68c-55 -11 -156 -137 -190 -182c-40 -54 -78 -110 -114 -167c-4 -8 -8 -16 -9 -25z" />
    <glyph glyph-name="n" unicode="&#xf1;" horiz-adv-x="596" 
d="M92 16c-2 -25 -29 -36 -53 -28c-7 3 -15 9 -19 16s-7 29 -6 37c16 69 38 136 57 203c8 30 54 200 60 230c-9 30 23 54 52 39c8 -4 14 -12 17 -20c3 -11 4 -23 2 -34c-6 -29 -46 -193 -53 -221c43 58 88 116 141 166c24 23 51 45 82 56c15 6 33 9 49 7
c21 -3 41 -17 52 -35c12 -21 17 -47 18 -72c3 -33 1 -67 -3 -100c-3 -25 -30 -157 -30 -182c13 6 61 33 70 43c30 30 77 -12 51 -46c-11 -14 -64 -58 -81 -67c-13 -6 -26 -13 -41 -15c-19 -3 -41 2 -56 13s-23 29 -27 46c-7 26 -4 53 1 79c10 64 27 127 33 191
c3 23 5 47 -3 68c-55 -11 -156 -137 -190 -182c-40 -54 -78 -110 -114 -167c-4 -8 -8 -16 -9 -25z" />
    <glyph glyph-name="o" unicode="o" horiz-adv-x="451" 
d="M211 8c-36 -13 -79 -16 -114 -1c-17 8 -34 19 -44 35c-26 40 -35 92 -31 139c7 90 44 180 97 254c12 16 24 34 41 45c33 22 67 49 106 55c16 2 33 2 49 -1c25 -4 49 -16 67 -33c19 -18 33 -44 40 -71c11 -43 10 -90 3 -135c-7 -48 -26 -94 -49 -137
c-35 -65 -95 -125 -165 -150zM128 87c11 -10 41 -6 56 -2c30 9 58 27 80 50c27 29 50 63 65 100c17 42 30 88 26 134c-2 27 -9 59 -32 74c-11 8 -27 11 -40 7c-19 -4 -36 -17 -50 -30c-36 -33 -59 -79 -84 -121c-6 -10 -12 -23 -22 -28c-2 -1 -3 -1 -4 -2
c-13 -39 -19 -81 -17 -122c2 -21 6 -46 22 -60z" />
    <glyph glyph-name="o" unicode="&#xf8;" horiz-adv-x="451" 
d="M211 8c-36 -13 -79 -16 -114 -1c-17 8 -34 19 -44 35c-26 40 -35 92 -31 139c7 90 44 180 97 254c12 16 24 34 41 45c33 22 67 49 106 55c16 2 33 2 49 -1c25 -4 49 -16 67 -33c19 -18 33 -44 40 -71c11 -43 10 -90 3 -135c-7 -48 -26 -94 -49 -137
c-35 -65 -95 -125 -165 -150zM128 87c11 -10 41 -6 56 -2c30 9 58 27 80 50c27 29 50 63 65 100c17 42 30 88 26 134c-2 27 -9 59 -32 74c-11 8 -27 11 -40 7c-19 -4 -36 -17 -50 -30c-36 -33 -59 -79 -84 -121c-6 -10 -12 -23 -22 -28c-2 -1 -3 -1 -4 -2
c-13 -39 -19 -81 -17 -122c2 -21 6 -46 22 -60z" />
    <glyph glyph-name="o" unicode="&#xf6;" horiz-adv-x="451" 
d="M211 8c-36 -13 -79 -16 -114 -1c-17 8 -34 19 -44 35c-26 40 -35 92 -31 139c7 90 44 180 97 254c12 16 24 34 41 45c33 22 67 49 106 55c16 2 33 2 49 -1c25 -4 49 -16 67 -33c19 -18 33 -44 40 -71c11 -43 10 -90 3 -135c-7 -48 -26 -94 -49 -137
c-35 -65 -95 -125 -165 -150zM128 87c11 -10 41 -6 56 -2c30 9 58 27 80 50c27 29 50 63 65 100c17 42 30 88 26 134c-2 27 -9 59 -32 74c-11 8 -27 11 -40 7c-19 -4 -36 -17 -50 -30c-36 -33 -59 -79 -84 -121c-6 -10 -12 -23 -22 -28c-2 -1 -3 -1 -4 -2
c-13 -39 -19 -81 -17 -122c2 -21 6 -46 22 -60z" />
    <glyph glyph-name="o" unicode="&#xf5;" horiz-adv-x="451" 
d="M211 8c-36 -13 -79 -16 -114 -1c-17 8 -34 19 -44 35c-26 40 -35 92 -31 139c7 90 44 180 97 254c12 16 24 34 41 45c33 22 67 49 106 55c16 2 33 2 49 -1c25 -4 49 -16 67 -33c19 -18 33 -44 40 -71c11 -43 10 -90 3 -135c-7 -48 -26 -94 -49 -137
c-35 -65 -95 -125 -165 -150zM128 87c11 -10 41 -6 56 -2c30 9 58 27 80 50c27 29 50 63 65 100c17 42 30 88 26 134c-2 27 -9 59 -32 74c-11 8 -27 11 -40 7c-19 -4 -36 -17 -50 -30c-36 -33 -59 -79 -84 -121c-6 -10 -12 -23 -22 -28c-2 -1 -3 -1 -4 -2
c-13 -39 -19 -81 -17 -122c2 -21 6 -46 22 -60z" />
    <glyph glyph-name="o" unicode="&#xf4;" horiz-adv-x="451" 
d="M211 8c-36 -13 -79 -16 -114 -1c-17 8 -34 19 -44 35c-26 40 -35 92 -31 139c7 90 44 180 97 254c12 16 24 34 41 45c33 22 67 49 106 55c16 2 33 2 49 -1c25 -4 49 -16 67 -33c19 -18 33 -44 40 -71c11 -43 10 -90 3 -135c-7 -48 -26 -94 -49 -137
c-35 -65 -95 -125 -165 -150zM128 87c11 -10 41 -6 56 -2c30 9 58 27 80 50c27 29 50 63 65 100c17 42 30 88 26 134c-2 27 -9 59 -32 74c-11 8 -27 11 -40 7c-19 -4 -36 -17 -50 -30c-36 -33 -59 -79 -84 -121c-6 -10 -12 -23 -22 -28c-2 -1 -3 -1 -4 -2
c-13 -39 -19 -81 -17 -122c2 -21 6 -46 22 -60z" />
    <glyph glyph-name="o" unicode="&#xf3;" horiz-adv-x="451" 
d="M211 8c-36 -13 -79 -16 -114 -1c-17 8 -34 19 -44 35c-26 40 -35 92 -31 139c7 90 44 180 97 254c12 16 24 34 41 45c33 22 67 49 106 55c16 2 33 2 49 -1c25 -4 49 -16 67 -33c19 -18 33 -44 40 -71c11 -43 10 -90 3 -135c-7 -48 -26 -94 -49 -137
c-35 -65 -95 -125 -165 -150zM128 87c11 -10 41 -6 56 -2c30 9 58 27 80 50c27 29 50 63 65 100c17 42 30 88 26 134c-2 27 -9 59 -32 74c-11 8 -27 11 -40 7c-19 -4 -36 -17 -50 -30c-36 -33 -59 -79 -84 -121c-6 -10 -12 -23 -22 -28c-2 -1 -3 -1 -4 -2
c-13 -39 -19 -81 -17 -122c2 -21 6 -46 22 -60z" />
    <glyph glyph-name="o" unicode="&#xf2;" horiz-adv-x="451" 
d="M211 8c-36 -13 -79 -16 -114 -1c-17 8 -34 19 -44 35c-26 40 -35 92 -31 139c7 90 44 180 97 254c12 16 24 34 41 45c33 22 67 49 106 55c16 2 33 2 49 -1c25 -4 49 -16 67 -33c19 -18 33 -44 40 -71c11 -43 10 -90 3 -135c-7 -48 -26 -94 -49 -137
c-35 -65 -95 -125 -165 -150zM128 87c11 -10 41 -6 56 -2c30 9 58 27 80 50c27 29 50 63 65 100c17 42 30 88 26 134c-2 27 -9 59 -32 74c-11 8 -27 11 -40 7c-19 -4 -36 -17 -50 -30c-36 -33 -59 -79 -84 -121c-6 -10 -12 -23 -22 -28c-2 -1 -3 -1 -4 -2
c-13 -39 -19 -81 -17 -122c2 -21 6 -46 22 -60z" />
    <glyph glyph-name="p" unicode="p" horiz-adv-x="527" 
d="M-66 -283c-15 -13 -34 -29 -54 -28c-27 2 -45 28 -39 54c3 9 9 17 15 24c24 23 49 45 70 72c51 65 82 146 107 225c42 131 70 266 95 401c6 34 45 47 65 20c4 -5 9 -21 8 -27c-3 -29 -7 -58 -12 -87c27 33 57 65 90 94c31 27 69 50 109 55c40 4 78 -16 97 -50
c14 -25 21 -55 22 -83c3 -63 -12 -129 -41 -186c-24 -47 -55 -93 -95 -128c-23 -20 -49 -37 -77 -50c-32 -14 -67 -22 -102 -19c-29 3 -58 18 -79 38c-23 -73 -49 -146 -87 -212c-25 -42 -55 -82 -92 -113zM184 96c20 -7 43 0 63 8c33 14 62 42 84 71c34 44 58 98 65 153
c4 26 6 54 -2 80c-1 1 -2 5 -3 5c-3 3 -14 -1 -18 -2c-27 -7 -52 -23 -75 -40c-36 -27 -66 -62 -94 -97c-15 -19 -29 -38 -45 -56c-6 -28 -13 -56 -21 -84c13 -15 28 -32 46 -38z" />
    <glyph glyph-name="q" unicode="q" horiz-adv-x="496" 
d="M268 -261c-29 -27 -71 9 -51 42c1 2 0 4 1 6c1 23 5 45 10 67c27 115 66 226 102 338c-21 -33 -44 -65 -70 -93c-31 -33 -63 -65 -103 -86c-22 -11 -51 -14 -73 -5c-25 11 -45 36 -54 61c-13 40 -13 84 -6 125c14 83 61 163 119 224c40 42 92 77 148 93
c37 10 77 14 115 7c15 -3 31 -8 42 -19c1 -1 3 -4 4 -5c27 -2 39 -34 22 -54c-3 -4 -5 -21 -6 -25c-30 -139 -77 -274 -118 -410c-17 -56 -34 -112 -46 -168c20 7 70 28 88 16c21 -12 26 -40 8 -57c-10 -10 -25 -13 -39 -17c-16 -4 -75 -21 -88 -33c0 0 -5 -6 -5 -7zM122 84
c1 -3 4 0 6 1c27 9 49 29 69 48c34 32 61 70 86 109c39 62 71 128 100 194c-22 -1 -45 -5 -66 -12c-19 -6 -37 -16 -53 -27c-36 -23 -67 -55 -90 -91c-36 -58 -56 -129 -55 -196c0 -9 3 -18 3 -26z" />
    <glyph glyph-name="r" unicode="r" horiz-adv-x="439" 
d="M81 -1c-10 -28 -49 -31 -63 -4c-5 9 -4 21 -3 32c5 33 49 203 58 235c7 25 47 164 52 188c3 12 6 24 7 37c5 36 54 39 65 4c2 -6 0 -12 1 -18c3 -27 -5 -55 -11 -82c38 37 81 69 128 94c21 11 68 31 89 19c9 -6 19 -13 24 -23c4 -10 4 -22 0 -31c-3 -11 -21 -25 -32 -27
c-3 0 -22 -2 -25 -2c-33 -8 -65 -26 -92 -46c-37 -27 -71 -59 -96 -96c-10 -15 -45 -78 -50 -95c-7 -24 -43 -161 -52 -185z" />
    <glyph glyph-name="s" unicode="s" horiz-adv-x="441" 
d="M303 63c-33 -30 -78 -53 -123 -55c-23 -1 -46 1 -68 5c-30 4 -61 10 -84 28c-25 20 -26 59 1 76c14 9 36 8 51 0c17 -7 35 -12 53 -15c20 -3 42 -4 62 0c38 7 81 38 80 76c-1 34 -76 101 -99 126c-5 6 -29 35 -32 41c-13 22 -21 48 -19 74c1 31 17 64 40 86
c23 20 53 32 83 38c33 6 69 -1 101 -12c19 -6 38 -14 54 -25c6 -4 13 -7 18 -13c28 -31 -6 -75 -45 -59c-10 4 -61 18 -72 20c-28 5 -63 -3 -84 -23c-16 -17 -10 -49 3 -69c28 -39 67 -70 94 -109c20 -29 34 -65 32 -100c-1 -34 -22 -67 -46 -90z" />
    <glyph glyph-name="t" unicode="t" horiz-adv-x="396" 
d="M168 10c-16 -15 -38 -28 -60 -29c-21 0 -41 10 -54 28c-11 16 -15 37 -16 57c-1 27 3 54 8 80c18 97 44 193 77 286c-11 0 -62 -2 -73 0c-12 1 -23 15 -25 27c-4 21 13 37 34 39c29 3 59 3 88 4c6 17 43 115 48 133c2 7 2 15 6 21c16 29 59 16 61 -16
c1 -18 -2 -35 -6 -52c-8 -29 -17 -56 -26 -84c16 0 111 4 126 4c28 1 40 -33 23 -54c-6 -8 -18 -11 -28 -11c-48 -3 -95 -6 -142 -8c-11 -35 -22 -70 -32 -106c-11 -41 -59 -230 -59 -273c21 16 36 40 49 63c6 10 9 23 18 31c18 16 48 7 53 -17c3 -14 -5 -28 -12 -40
c-15 -30 -35 -59 -58 -83z" />
    <glyph glyph-name="u" unicode="u" horiz-adv-x="561" 
d="M127 -22c-30 -11 -62 -2 -81 25c-14 19 -21 45 -24 69c-5 56 7 113 21 167c22 79 52 156 74 235c0 2 3 16 3 18c12 37 64 28 66 -11c1 -18 0 -36 -3 -54c-18 -97 -54 -191 -69 -289c-4 -28 -8 -58 -2 -86c52 29 92 78 125 127c47 74 79 156 116 235c8 18 50 105 62 121
c8 10 24 11 37 11c29 0 48 -31 33 -57c-15 -27 -36 -155 -41 -186c-9 -49 -17 -98 -19 -147c0 -25 1 -51 11 -73c2 -4 4 -10 7 -9c9 3 48 33 57 38c32 18 65 -23 41 -51c-5 -6 -36 -31 -42 -35c-17 -13 -38 -23 -60 -24c-13 0 -26 5 -37 12c-25 17 -42 47 -48 77
c-14 61 -1 127 10 189c-24 -52 -49 -103 -80 -151c-22 -34 -49 -67 -78 -96c-23 -22 -49 -44 -79 -55z" />
    <glyph glyph-name="u" unicode="&#xfc;" horiz-adv-x="561" 
d="M127 -22c-30 -11 -62 -2 -81 25c-14 19 -21 45 -24 69c-5 56 7 113 21 167c22 79 52 156 74 235c0 2 3 16 3 18c12 37 64 28 66 -11c1 -18 0 -36 -3 -54c-18 -97 -54 -191 -69 -289c-4 -28 -8 -58 -2 -86c52 29 92 78 125 127c47 74 79 156 116 235c8 18 50 105 62 121
c8 10 24 11 37 11c29 0 48 -31 33 -57c-15 -27 -36 -155 -41 -186c-9 -49 -17 -98 -19 -147c0 -25 1 -51 11 -73c2 -4 4 -10 7 -9c9 3 48 33 57 38c32 18 65 -23 41 -51c-5 -6 -36 -31 -42 -35c-17 -13 -38 -23 -60 -24c-13 0 -26 5 -37 12c-25 17 -42 47 -48 77
c-14 61 -1 127 10 189c-24 -52 -49 -103 -80 -151c-22 -34 -49 -67 -78 -96c-23 -22 -49 -44 -79 -55z" />
    <glyph glyph-name="u" unicode="&#xfb;" horiz-adv-x="561" 
d="M127 -22c-30 -11 -62 -2 -81 25c-14 19 -21 45 -24 69c-5 56 7 113 21 167c22 79 52 156 74 235c0 2 3 16 3 18c12 37 64 28 66 -11c1 -18 0 -36 -3 -54c-18 -97 -54 -191 -69 -289c-4 -28 -8 -58 -2 -86c52 29 92 78 125 127c47 74 79 156 116 235c8 18 50 105 62 121
c8 10 24 11 37 11c29 0 48 -31 33 -57c-15 -27 -36 -155 -41 -186c-9 -49 -17 -98 -19 -147c0 -25 1 -51 11 -73c2 -4 4 -10 7 -9c9 3 48 33 57 38c32 18 65 -23 41 -51c-5 -6 -36 -31 -42 -35c-17 -13 -38 -23 -60 -24c-13 0 -26 5 -37 12c-25 17 -42 47 -48 77
c-14 61 -1 127 10 189c-24 -52 -49 -103 -80 -151c-22 -34 -49 -67 -78 -96c-23 -22 -49 -44 -79 -55z" />
    <glyph glyph-name="u" unicode="&#xfa;" horiz-adv-x="561" 
d="M127 -22c-30 -11 -62 -2 -81 25c-14 19 -21 45 -24 69c-5 56 7 113 21 167c22 79 52 156 74 235c0 2 3 16 3 18c12 37 64 28 66 -11c1 -18 0 -36 -3 -54c-18 -97 -54 -191 -69 -289c-4 -28 -8 -58 -2 -86c52 29 92 78 125 127c47 74 79 156 116 235c8 18 50 105 62 121
c8 10 24 11 37 11c29 0 48 -31 33 -57c-15 -27 -36 -155 -41 -186c-9 -49 -17 -98 -19 -147c0 -25 1 -51 11 -73c2 -4 4 -10 7 -9c9 3 48 33 57 38c32 18 65 -23 41 -51c-5 -6 -36 -31 -42 -35c-17 -13 -38 -23 -60 -24c-13 0 -26 5 -37 12c-25 17 -42 47 -48 77
c-14 61 -1 127 10 189c-24 -52 -49 -103 -80 -151c-22 -34 -49 -67 -78 -96c-23 -22 -49 -44 -79 -55z" />
    <glyph glyph-name="u" unicode="&#xf9;" horiz-adv-x="561" 
d="M127 -22c-30 -11 -62 -2 -81 25c-14 19 -21 45 -24 69c-5 56 7 113 21 167c22 79 52 156 74 235c0 2 3 16 3 18c12 37 64 28 66 -11c1 -18 0 -36 -3 -54c-18 -97 -54 -191 -69 -289c-4 -28 -8 -58 -2 -86c52 29 92 78 125 127c47 74 79 156 116 235c8 18 50 105 62 121
c8 10 24 11 37 11c29 0 48 -31 33 -57c-15 -27 -36 -155 -41 -186c-9 -49 -17 -98 -19 -147c0 -25 1 -51 11 -73c2 -4 4 -10 7 -9c9 3 48 33 57 38c32 18 65 -23 41 -51c-5 -6 -36 -31 -42 -35c-17 -13 -38 -23 -60 -24c-13 0 -26 5 -37 12c-25 17 -42 47 -48 77
c-14 61 -1 127 10 189c-24 -52 -49 -103 -80 -151c-22 -34 -49 -67 -78 -96c-23 -22 -49 -44 -79 -55z" />
    <glyph glyph-name="v" unicode="v" horiz-adv-x="420" 
d="M154 0c-18 -9 -43 -11 -61 -2c-20 10 -34 31 -41 52c-7 24 -7 50 -6 75c3 89 11 178 9 267c0 19 -1 39 -4 57c-37 5 -37 56 -2 68c20 7 47 0 59 -17s17 -37 22 -57c4 -21 6 -42 7 -64c2 -52 0 -104 -2 -156c-1 -31 -4 -63 -4 -94c-1 -20 -1 -40 3 -59c21 14 37 35 52 56
c61 86 101 186 134 285c8 23 15 46 21 70c2 6 2 13 4 19c15 30 62 21 62 -12c0 -42 -60 -196 -77 -235c-29 -68 -64 -136 -110 -195c-18 -23 -40 -44 -66 -58z" />
    <glyph glyph-name="w" unicode="w" horiz-adv-x="655" 
d="M420 8c-20 -12 -45 -18 -67 -12c-15 5 -28 15 -38 27c-16 20 -22 47 -24 72c-4 39 -4 79 -5 118c-29 -54 -56 -110 -92 -160c-11 -16 -24 -30 -39 -42c-30 -24 -73 -21 -97 9c-9 11 -16 25 -19 39c-8 42 -4 87 0 130c7 65 16 129 13 194c0 20 -3 40 -6 60
c-12 5 -20 20 -18 35c4 22 25 40 47 36c12 -2 23 -12 29 -23c23 -45 28 -99 27 -149c0 -67 -9 -133 -11 -200c-1 -22 -2 -45 3 -68c14 13 25 30 36 46c13 18 24 37 34 57c12 19 70 129 83 147c8 26 40 32 59 12c5 -5 13 -30 15 -37c14 -61 8 -125 16 -187
c2 -15 5 -30 11 -44c11 3 21 10 30 19c32 32 55 72 74 113c24 47 43 96 58 147c6 18 30 115 39 133c18 33 72 12 62 -25c-24 -88 -48 -177 -85 -260c-19 -42 -41 -83 -67 -121c-19 -25 -41 -50 -68 -66z" />
    <glyph glyph-name="x" unicode="x" horiz-adv-x="579" 
d="M78 8c-20 -14 -50 -13 -63 9c-17 29 -2 67 33 66c43 58 87 117 132 173c-12 52 -24 105 -37 157c-4 16 -5 33 -13 47c-5 9 -5 22 0 32c13 26 50 26 62 0c23 -51 38 -105 53 -159c56 64 117 127 184 180c25 20 50 40 79 52c35 14 76 -15 60 -49c-5 -12 -16 -20 -28 -21
c-105 -66 -191 -160 -268 -258c8 -28 18 -55 30 -82c11 -25 25 -51 46 -70c8 -7 18 -10 28 -7c8 2 15 8 21 14c14 13 24 34 43 37c28 5 50 -27 34 -50c-18 -25 -37 -50 -63 -65c-17 -10 -36 -15 -55 -14c-31 2 -63 17 -85 39c-31 32 -51 74 -64 116
c-19 -24 -103 -130 -129 -147z" />
    <glyph glyph-name="y" unicode="y" horiz-adv-x="526" 
d="M242 -260c-26 -11 -56 -17 -84 -16c-23 0 -45 7 -65 16c-27 13 -47 38 -62 63c-17 28 14 60 45 49c12 -5 20 -18 32 -24c17 -8 38 -6 56 -2c47 9 89 43 114 84c27 44 48 92 62 142c18 65 32 131 48 197c-18 -33 -37 -67 -57 -99c-30 -48 -66 -96 -113 -127
c-30 -20 -67 -34 -104 -35c-11 0 -24 2 -35 7c-20 8 -37 25 -46 45c-8 20 -11 42 -11 64c1 85 20 170 48 251c5 15 37 107 42 122c4 10 8 21 15 29c1 1 4 6 4 7c17 24 53 18 61 -10c1 -6 2 -29 0 -35c-2 -14 -28 -87 -32 -100c-18 -57 -34 -115 -43 -174
c-6 -33 -12 -68 -8 -101c0 -5 1 -20 5 -23c3 -3 13 -1 18 0c19 3 37 12 53 21c31 18 54 47 75 75c31 43 56 91 82 138c13 22 77 134 86 157c3 10 11 18 20 22c24 7 53 -13 55 -38c1 -25 -2 -50 -5 -75c-7 -58 -18 -115 -30 -173c-14 -66 -28 -132 -46 -197
c-16 -54 -36 -108 -65 -155c-13 -20 -26 -40 -43 -57c-21 -20 -45 -37 -72 -48z" />
    <glyph glyph-name="y" unicode="&#xff;" horiz-adv-x="526" 
d="M242 -260c-26 -11 -56 -17 -84 -16c-23 0 -45 7 -65 16c-27 13 -47 38 -62 63c-17 28 14 60 45 49c12 -5 20 -18 32 -24c17 -8 38 -6 56 -2c47 9 89 43 114 84c27 44 48 92 62 142c18 65 32 131 48 197c-18 -33 -37 -67 -57 -99c-30 -48 -66 -96 -113 -127
c-30 -20 -67 -34 -104 -35c-11 0 -24 2 -35 7c-20 8 -37 25 -46 45c-8 20 -11 42 -11 64c1 85 20 170 48 251c5 15 37 107 42 122c4 10 8 21 15 29c1 1 4 6 4 7c17 24 53 18 61 -10c1 -6 2 -29 0 -35c-2 -14 -28 -87 -32 -100c-18 -57 -34 -115 -43 -174
c-6 -33 -12 -68 -8 -101c0 -5 1 -20 5 -23c3 -3 13 -1 18 0c19 3 37 12 53 21c31 18 54 47 75 75c31 43 56 91 82 138c13 22 77 134 86 157c3 10 11 18 20 22c24 7 53 -13 55 -38c1 -25 -2 -50 -5 -75c-7 -58 -18 -115 -30 -173c-14 -66 -28 -132 -46 -197
c-16 -54 -36 -108 -65 -155c-13 -20 -26 -40 -43 -57c-21 -20 -45 -37 -72 -48z" />
    <glyph glyph-name="y" unicode="&#xfd;" horiz-adv-x="526" 
d="M242 -260c-26 -11 -56 -17 -84 -16c-23 0 -45 7 -65 16c-27 13 -47 38 -62 63c-17 28 14 60 45 49c12 -5 20 -18 32 -24c17 -8 38 -6 56 -2c47 9 89 43 114 84c27 44 48 92 62 142c18 65 32 131 48 197c-18 -33 -37 -67 -57 -99c-30 -48 -66 -96 -113 -127
c-30 -20 -67 -34 -104 -35c-11 0 -24 2 -35 7c-20 8 -37 25 -46 45c-8 20 -11 42 -11 64c1 85 20 170 48 251c5 15 37 107 42 122c4 10 8 21 15 29c1 1 4 6 4 7c17 24 53 18 61 -10c1 -6 2 -29 0 -35c-2 -14 -28 -87 -32 -100c-18 -57 -34 -115 -43 -174
c-6 -33 -12 -68 -8 -101c0 -5 1 -20 5 -23c3 -3 13 -1 18 0c19 3 37 12 53 21c31 18 54 47 75 75c31 43 56 91 82 138c13 22 77 134 86 157c3 10 11 18 20 22c24 7 53 -13 55 -38c1 -25 -2 -50 -5 -75c-7 -58 -18 -115 -30 -173c-14 -66 -28 -132 -46 -197
c-16 -54 -36 -108 -65 -155c-13 -20 -26 -40 -43 -57c-21 -20 -45 -37 -72 -48z" />
    <glyph glyph-name="z" unicode="z" horiz-adv-x="475" 
d="M362 -20c-32 -4 -66 5 -96 18c-10 4 -64 32 -74 36c-18 6 -39 8 -57 4c-12 -3 -69 -20 -81 -21c-29 -1 -50 29 -37 55c10 21 26 38 40 56c14 16 96 114 110 130c43 50 87 99 130 149c-61 -9 -125 -7 -185 4c-18 4 -36 12 -47 26c-13 18 -5 43 16 51c11 5 24 -1 36 -2
s81 -1 93 -1c43 0 86 6 128 16c6 1 34 7 40 9c8 4 29 2 37 -3c20 -11 29 -36 14 -54c-4 -5 -8 -12 -14 -15c-3 -2 -13 -5 -15 -7c-41 -59 -90 -112 -137 -166c-43 -49 -86 -99 -128 -149c23 8 50 10 74 5c31 -7 61 -19 91 -32c6 -2 35 -15 41 -16c21 -5 47 -6 65 6
c23 15 53 3 56 -25c1 -15 -10 -30 -22 -39c-23 -17 -49 -32 -78 -35z" />
    <glyph glyph-name="braceleft" unicode="{" horiz-adv-x="312" 
d="M223 -162c-33 -7 -69 -4 -100 9c-17 8 -31 20 -41 35c-13 20 -18 44 -18 67c1 78 25 153 37 230c5 37 9 76 3 113c-3 15 -10 28 -23 38c-15 13 -36 20 -47 37c-9 16 -5 41 8 54c16 14 35 24 52 37c15 11 29 24 41 39c15 20 25 44 30 68c15 64 18 131 39 193
c8 23 20 44 34 63c17 21 39 39 62 53c38 22 94 30 118 -7c12 -18 4 -43 -15 -53c-13 -7 -29 -3 -43 -4c-24 -2 -61 -40 -73 -61c-16 -28 -24 -61 -30 -93c-11 -59 -17 -121 -44 -175c-19 -38 -53 -70 -88 -94c20 -16 36 -37 45 -60c14 -36 13 -78 11 -117
c-4 -57 -16 -113 -24 -169c-5 -29 -9 -57 -9 -86c0 -7 0 -28 6 -33c7 -7 37 -10 48 -11c4 0 22 -3 26 -5c21 -12 28 -38 13 -56c-5 -6 -11 -11 -18 -12z" />
    <glyph glyph-name="braceright" unicode="}" horiz-adv-x="275" 
d="M64 -100c-33 -39 -82 -61 -133 -62c-10 0 -22 1 -30 7c-28 18 -31 57 -3 75c16 11 39 4 59 6c9 1 18 3 26 6c21 8 39 26 48 46c46 103 23 230 72 333c8 15 17 31 29 43c-8 4 -17 8 -24 14c-13 10 -23 25 -28 42c-9 29 -4 62 4 91c4 17 38 104 44 119c14 40 26 83 23 125
c0 14 -10 47 -22 55c-8 6 -42 10 -52 10c-2 0 -4 -2 -5 -3c-27 -15 -55 11 -52 41c1 15 18 29 33 30c17 1 33 2 50 1c28 0 60 -9 80 -28c28 -27 41 -69 44 -107c3 -47 -10 -95 -23 -141c-12 -41 -31 -79 -43 -120c-5 -16 -15 -50 -2 -62c6 -7 16 -11 25 -13
c15 -2 30 -5 41 -14c16 -13 18 -38 6 -53c-13 -16 -35 -20 -48 -35c-19 -20 -28 -48 -34 -75c-15 -63 -15 -129 -26 -194c-9 -49 -26 -100 -59 -137z" />
    <glyph glyph-name="asciitilde" unicode="~" horiz-adv-x="510" 
d="M365 190c-21 -5 -46 2 -65 15c-47 34 -81 89 -134 113c-2 0 -4 2 -6 1c-2 -2 -5 -4 -7 -7c-23 -24 -41 -52 -57 -81c-7 -12 -20 -22 -33 -25c-26 -5 -47 25 -34 47c1 3 1 5 3 8c14 28 30 55 49 80c13 16 28 32 46 43c15 9 35 10 52 5c33 -12 62 -35 88 -60
c14 -13 61 -68 80 -73c9 -3 20 12 26 20c17 24 30 51 43 78c24 51 89 16 63 -34c-13 -26 -27 -52 -43 -76c-17 -24 -42 -47 -71 -54z" />
    <glyph glyph-name="nonbreakingspace" unicode="&#xa0;" horiz-adv-x="250" 
 />
    <glyph glyph-name="cent" unicode="&#xa2;" horiz-adv-x="470" 
d="M220 4c-9 -40 -64 -35 -66 5c-2 17 17 85 20 101c-45 12 -88 43 -113 82c-19 30 -29 68 -28 104c1 31 9 62 21 90c19 41 47 78 80 108c27 22 58 42 92 50c22 5 46 7 68 5c11 37 22 74 32 112c12 41 68 39 69 -4c0 -20 -28 -104 -34 -123c24 -11 69 -42 71 -67
c3 -27 -22 -49 -48 -42c-9 2 -17 10 -24 16c-6 7 -14 12 -22 17c-28 -93 -54 -186 -77 -279c24 5 47 14 67 27c8 5 40 35 49 38c24 9 46 -11 43 -36c-2 -24 -47 -57 -67 -68c-34 -20 -72 -32 -111 -36c-7 -33 -15 -66 -22 -100zM118 244c12 -30 42 -55 74 -64
c24 97 50 192 78 288c-23 -5 -46 -12 -65 -24c-62 -40 -115 -132 -87 -200z" />
    <glyph glyph-name="sterling" unicode="&#xa3;" horiz-adv-x="618" 
d="M526 4c-39 -19 -83 -33 -127 -33c-69 0 -134 35 -202 43c-19 3 -40 2 -59 -3c-20 -6 -39 -15 -58 -25c-42 -24 -82 28 -46 62c1 1 11 8 12 9c14 12 29 23 42 35c29 26 54 58 68 93s19 72 23 109c-7 0 -55 -1 -62 -1c-11 -1 -22 -4 -32 0c-40 15 -18 72 25 67
c10 -1 66 4 77 4c6 61 12 124 33 181c17 46 46 88 82 120c22 21 49 39 79 45c44 9 97 -11 127 -44c16 -17 31 -38 37 -61c5 -18 2 -42 -12 -55c-21 -19 -54 -8 -60 20c-2 10 -11 19 -20 24c-4 3 -23 9 -28 10c-17 4 -36 -4 -51 -13c-31 -17 -55 -48 -71 -80
c-22 -44 -28 -94 -34 -143c49 2 98 3 147 -2c17 -2 35 -4 52 -9c18 -5 26 -25 21 -44c-4 -13 -20 -24 -34 -23c-21 3 -42 5 -63 6c-44 2 -87 1 -131 0c-5 -42 -11 -85 -25 -126c-9 -28 -24 -56 -41 -80c34 -1 67 -7 100 -16c41 -11 84 -25 127 -21c35 3 69 20 101 35
c8 4 15 11 24 13c21 5 39 -11 42 -32c3 -27 -38 -53 -63 -65z" />
    <glyph glyph-name="currency" unicode="&#xa4;" horiz-adv-x="505" 
d="M445 177c23 -33 -22 -70 -51 -42c-20 21 -41 41 -61 62c-29 -11 -61 -18 -91 -16c-35 3 -71 14 -99 35c-10 -10 -51 -59 -63 -67c-6 -4 -14 -5 -21 -4c-28 4 -37 38 -17 57c8 8 52 60 60 68c-13 29 -14 62 -9 93c6 30 21 58 39 82c-5 5 -27 30 -33 34s-15 6 -22 10
c-33 22 -8 71 30 59c30 -10 52 -35 73 -58c20 14 45 24 69 23c6 0 13 -1 19 -3l2 -1c32 -1 65 -12 92 -29c12 13 51 58 67 63c26 9 49 -15 41 -42c-2 -9 -11 -14 -17 -21c-14 -15 -28 -30 -43 -45c17 -24 25 -55 25 -85c0 -41 -19 -85 -47 -116c8 -8 50 -48 57 -57zM235 250
c31 -5 65 2 91 20c38 27 55 81 31 121c-18 29 -56 45 -89 48c-11 1 -22 -4 -32 -2c-46 -24 -86 -86 -71 -134c4 -15 15 -28 28 -37c12 -9 27 -14 42 -16z" />
    <glyph glyph-name="yen" unicode="&#xa5;" horiz-adv-x="682" 
d="M262 -2c-17 -12 -41 -5 -49 14c-3 6 -3 13 -2 20c2 22 41 107 49 127c-26 -2 -53 -5 -79 -7c-6 -1 -37 -4 -43 -4c-44 1 -46 63 -2 68c1 0 7 -1 8 -1c50 7 100 13 149 18c3 7 6 13 9 19c-16 -1 -117 -5 -134 -6c-12 0 -26 -1 -36 5c-20 15 -17 44 4 57c7 4 36 7 44 8
c31 4 62 6 93 8c-17 72 -40 145 -81 207c-18 27 -46 53 -77 58c-7 2 -14 1 -21 2c-5 0 -12 -8 -15 -12c-9 -11 -29 -12 -42 -5c-19 11 -18 36 -8 55c13 22 40 38 66 40c27 2 55 -6 79 -18c37 -18 68 -49 90 -83c42 -64 67 -138 90 -211c62 112 142 213 228 307
c10 11 25 19 40 20c25 2 46 -20 43 -45c-2 -14 -11 -27 -22 -37c-56 -57 -106 -119 -153 -184c-19 -27 -37 -55 -53 -84c14 2 88 11 102 10c38 -3 42 -58 5 -65c-49 -10 -99 -16 -150 -20l-9 -18c39 3 77 5 116 7c36 2 52 -41 22 -62c-6 -4 -13 -5 -21 -6l-153 -12
c-24 -51 -46 -102 -72 -151c-4 -8 -9 -15 -15 -19z" />
    <glyph glyph-name="softhyphen" unicode="&#xad;" 
 />
    <glyph glyph-name="plusminus" unicode="&#xb1;" horiz-adv-x="471" 
d="M276 195c-13 -25 -48 -23 -61 2c-9 18 2 81 4 100c-28 -2 -56 -11 -85 -11c-38 1 -43 59 -5 65c33 6 66 16 100 17c3 23 6 46 11 69c5 21 25 33 45 29c21 -5 33 -32 23 -51c-3 -7 -7 -39 -8 -47c24 -1 104 1 123 -14c26 -18 15 -56 -16 -61c-6 -1 -35 1 -41 2
c-10 1 -66 3 -76 3c-4 -27 -8 -54 -10 -81c-1 -8 -1 -15 -4 -22zM293 -18c-24 0 -167 0 -191 1s-51 -1 -72 12c-27 15 -15 55 15 60c4 0 9 -2 13 -1c41 2 81 5 121 7c65 3 131 2 196 6c14 1 30 3 44 -3c24 -11 30 -43 12 -62c-8 -7 -19 -11 -30 -13c-16 -4 -92 -7 -108 -7z
" />
    <glyph glyph-name="multiply" unicode="&#xd7;" horiz-adv-x="435" 
d="M87 157c-18 -29 -64 -12 -61 22c1 6 4 12 7 18c15 24 104 111 125 130c-9 14 -61 94 -69 109c-16 30 23 61 50 40c7 -6 11 -15 17 -23c21 -25 39 -52 56 -79c41 35 83 68 126 101c9 7 19 14 30 16c28 5 51 -21 41 -47c-3 -9 -11 -15 -19 -21c-18 -13 -120 -95 -138 -110
c11 -16 22 -32 34 -48c12 -17 24 -35 41 -46c30 -19 13 -67 -21 -62c-17 3 -33 12 -45 24c-25 26 -44 56 -64 86c-21 -18 -42 -36 -63 -56c-17 -17 -35 -33 -47 -54z" />
    <glyph glyph-name="divide" unicode="&#xf7;" horiz-adv-x="456" 
d="M243 408c-7 -3 -15 -3 -23 -1c-12 2 -26 -2 -39 1c-31 7 -33 50 -4 62c6 3 32 5 38 6c43 6 66 -47 28 -68zM135 270c-47 -2 -113 -15 -116 33c-1 19 15 33 34 35c1 0 7 -2 8 -1c27 3 54 4 80 6c82 7 164 8 246 7c13 -1 27 -5 37 -13c17 -13 17 -38 4 -55
c-9 -12 -27 -16 -42 -16c-84 4 -167 7 -251 4zM215 140c-10 -5 -38 -9 -49 -5c-29 10 -29 50 -1 64c13 6 28 8 42 6c34 -5 39 -50 8 -65z" />
    <glyph glyph-name="quoteleft" unicode="&#x2018;" horiz-adv-x="157" 
d="M86 623c-16 -25 -55 -17 -62 12c-3 12 2 24 6 36c6 15 41 108 47 123c4 10 15 17 25 20c24 5 46 -15 41 -39c-5 -26 -43 -129 -57 -152z" />
    <glyph glyph-name="quoteright" unicode="&#x2019;" horiz-adv-x="157" 
d="M86 623c-16 -25 -55 -17 -62 12c-3 12 2 24 6 36c6 15 41 108 47 123c4 10 15 17 25 20c24 5 46 -15 41 -39c-5 -26 -43 -129 -57 -152z" />
    <glyph glyph-name="quotedblleft" unicode="&#x201c;" horiz-adv-x="298" 
d="M241 652c-19 -22 -56 -8 -58 22c-1 15 20 74 24 89c5 15 9 30 12 46c4 19 23 28 42 25h1c13 -4 26 -18 25 -32c0 -16 -4 -33 -8 -49c-6 -18 -25 -87 -38 -101zM86 638c-17 -33 -68 -17 -63 20c3 20 39 126 44 146c9 33 49 36 63 6c3 -9 4 -21 0 -29c-3 -5 -9 -33 -10 -39
c-5 -15 -27 -90 -34 -104z" />
    <glyph glyph-name="quotedblright" unicode="&#x201d;" horiz-adv-x="298" 
d="M241 652c-19 -22 -56 -8 -58 22c-1 15 20 74 24 89c5 15 9 30 12 46c4 19 23 28 42 25h1c13 -4 26 -18 25 -32c0 -16 -4 -33 -8 -49c-6 -18 -25 -87 -38 -101zM86 638c-17 -33 -68 -17 -63 20c3 20 39 126 44 146c9 33 49 36 63 6c3 -9 4 -21 0 -29c-3 -5 -9 -33 -10 -39
c-5 -15 -27 -90 -34 -104z" />
    <glyph glyph-name="Euro" unicode="&#x20ac;" horiz-adv-x="635" 
d="M389 -3c-28 -11 -61 -14 -90 -8c-26 6 -50 18 -69 36c-24 22 -45 48 -60 78c-24 51 -34 109 -34 166c-26 -1 -52 -2 -78 -2c-41 0 -47 55 -8 65c13 4 78 7 91 8c2 18 5 37 9 55c-8 -1 -51 -3 -58 -3c-13 1 -23 6 -30 15c-20 25 2 59 33 53c25 3 49 6 74 7
c29 85 84 169 160 217c50 31 115 47 173 36c15 -3 30 -9 42 -18c27 -18 46 -48 57 -78c8 -19 12 -55 -3 -69c-13 -11 -34 -15 -47 -5c-10 9 -16 21 -22 33c-4 8 -19 31 -28 35c-6 2 -13 6 -19 7c-30 5 -61 -2 -88 -15c-20 -9 -37 -23 -53 -37c-32 -28 -57 -65 -75 -103
c58 1 117 -1 175 -4c45 -2 45 -66 -1 -67c-67 0 -135 1 -203 -1c-5 -18 -9 -36 -12 -54c59 2 119 3 179 -3c38 -3 38 -63 0 -66c-12 -1 -23 1 -35 1c-51 0 -102 -3 -153 -5c-1 -38 1 -77 13 -113c19 -60 68 -117 128 -96c11 4 22 9 32 15c27 18 52 41 73 66c6 7 9 16 14 24
c20 31 69 11 62 -25c-6 -28 -27 -50 -45 -71c-29 -31 -64 -59 -104 -74z" />
    <glyph glyph-name="trademark" unicode="&#x2122;" horiz-adv-x="761" 
d="M175 466c-14 -22 -46 -21 -58 1c-5 10 -5 21 -3 31c12 60 24 120 28 181h-1c-27 3 -53 11 -80 10c-32 -2 -51 31 -31 56c6 7 18 11 27 10c8 0 17 2 25 1c11 -2 21 -4 31 -6c59 -10 119 -9 179 -8c9 0 19 -1 26 -6c19 -13 19 -41 1 -55c-7 -5 -17 -6 -26 -6
c-28 0 -56 -1 -85 0c-2 -53 -12 -105 -21 -157c-2 -9 -8 -44 -12 -52zM700 440c-13 -22 -44 -22 -57 0c-6 10 -4 25 -2 37c3 25 18 159 18 184c-11 -12 -76 -88 -87 -99c-9 -10 -19 -20 -32 -24c-48 -16 -69 60 -91 106c-7 -27 -41 -152 -56 -176c-22 -35 -76 -7 -59 30
c17 38 27 78 39 117c5 18 27 99 37 115c12 19 37 26 55 13c23 -15 57 -101 68 -126c21 23 40 48 60 71c16 17 32 34 52 47c25 16 59 10 71 -17c9 -19 10 -42 9 -63c-2 -47 -9 -95 -14 -142c-2 -12 -5 -62 -11 -73z" />
    <glyph glyph-name="minus" unicode="&#x2212;" horiz-adv-x="445" 
d="M390 357c53 -9 47 -83 -7 -82c-6 0 -12 2 -19 2c-26 1 -180 7 -206 7c-33 0 -67 -7 -100 -7c-43 -1 -55 55 -13 66c10 3 59 10 69 11c68 7 137 4 205 3c10 -1 61 2 71 0z" />
    <glyph glyph-name="bar" unicode="|" horiz-adv-x="202" 
d="M107 -163c-20 -8 -42 3 -49 24c-2 6 -4 12 -4 19c1 16 3 32 4 48c5 79 2 159 2 238c0 106 -1 211 0 317c0 107 -1 213 6 320c1 17 15 37 32 39c11 1 22 -4 30 -10c18 -11 19 -34 7 -50c1 -84 3 -169 4 -253c0 -168 8 -335 4 -503c-1 -50 -3 -101 -9 -150
c-2 -16 -13 -33 -27 -39z" />
    <glyph glyph-name="grave" unicode="`" horiz-adv-x="215" 
d="M184 620c28 -32 -17 -77 -49 -48c-26 26 -105 109 -111 145c-6 33 33 52 57 28c3 -3 5 -8 7 -13c1 -2 8 -11 10 -12c27 -35 57 -67 86 -100z" />
    <glyph glyph-name="comma" unicode="," horiz-adv-x="168" 
d="M52 -47c-27 -12 -59 12 -53 41c2 10 36 96 43 104c12 13 26 18 43 14c21 -4 35 -32 27 -52s-40 -98 -60 -107z" />
    <glyph glyph-name="controlLF" unicode="&#xa;" 
 />
    </font>
</defs>
</svg>
